<?xml version="1.0" encoding="utf-8"?>
<!-- Generator: Adobe Illustrator 19.0.0, SVG Export Plug-In . SVG Version: 6.00 Build 0)  -->
<svg version="1.1" id="Capa_1" xmlns="http://www.w3.org/2000/svg" xmlns:xlink="http://www.w3.org/1999/xlink" x="0px" y="0px"
	 viewBox="-273 150.4 294.8 294.8" style="enable-background:new -273 150.4 294.8 294.8;" xml:space="preserve">
<style type="text/css">
	.st0{fill:#FFFFFF;}
</style>
<g>
	<path class="st0" d="M15.8,150.4H-267c-3.3,0-6,2.7-6,6v282.8c0,3.3,2.7,6,6,6s6-2.7,6-6V214.4h241.4c3.3,0,6-2.7,6-6s-2.7-6-6-6
		H-261v-40H9.8v270.8h-216.4c-3.3,0-6,2.7-6,6s2.7,6,6,6H15.8c3.3,0,6-2.7,6-6V156.4C21.8,153.1,19.2,150.4,15.8,150.4z"/>
	<path class="st0" d="M-245.3,178.2c-1.1,1.1-1.8,2.7-1.8,4.3s0.6,3.1,1.8,4.2c1.1,1.1,2.7,1.8,4.2,1.8s3.1-0.6,4.2-1.8
		c1.1-1.1,1.8-2.7,1.8-4.2c0-1.6-0.6-3.1-1.8-4.3c-1.1-1.1-2.7-1.8-4.3-1.8C-242.6,176.4-244.2,177.1-245.3,178.2z"/>
	<path class="st0" d="M-225.3,178.2c-1.1,1.1-1.8,2.7-1.8,4.3c0,1.6,0.6,3.1,1.8,4.2c1.1,1.1,2.7,1.8,4.2,1.8c1.6,0,3.1-0.6,4.2-1.8
		c1.1-1.1,1.8-2.7,1.8-4.2c0-1.6-0.6-3.1-1.8-4.3c-1.1-1.1-2.7-1.8-4.2-1.8C-222.7,176.4-224.2,177.1-225.3,178.2z"/>
	<path class="st0" d="M-205.3,178.2c-1.1,1.1-1.8,2.7-1.8,4.3c0,1.6,0.6,3.1,1.8,4.2c1.1,1.1,2.7,1.8,4.2,1.8c1.6,0,3.1-0.6,4.3-1.8
		c1.1-1.1,1.8-2.7,1.8-4.2c0-1.6-0.6-3.1-1.8-4.3c-1.1-1.1-2.7-1.8-4.3-1.8S-204.2,177.1-205.3,178.2z"/>
</g>
</svg>
