<?xml version="1.0" encoding="utf-8"?>
<!-- Generator: Adobe Illustrator 19.0.0, SVG Export Plug-In . SVG Version: 6.00 Build 0)  -->
<svg version="1.1" id="Capa_1" xmlns="http://www.w3.org/2000/svg" xmlns:xlink="http://www.w3.org/1999/xlink" x="0px" y="0px"
	 viewBox="-180 58.3 480 480" style="enable-background:new -180 58.3 480 480;" xml:space="preserve">
<style type="text/css">
	.st0{fill:#FFFFFF;}
</style>
<g>
	<g>
		<path class="st0" d="M84,298.3c-13.3,0-24,10.7-24,24s10.7,24,24,24s24-10.7,24-24S97.3,298.3,84,298.3z M84,330.3
			c-4.4,0-8-3.6-8-8s3.6-8,8-8s8,3.6,8,8S88.4,330.3,84,330.3z"/>
	</g>
</g>
<g>
	<g>
		<path class="st0" d="M148,298.3c-13.3,0-24,10.7-24,24s10.7,24,24,24s24-10.7,24-24S161.3,298.3,148,298.3z M148,330.3
			c-4.4,0-8-3.6-8-8s3.6-8,8-8s8,3.6,8,8S152.4,330.3,148,330.3z"/>
	</g>
</g>
<g>
	<g>
		<path class="st0" d="M212,298.3c-13.3,0-24,10.7-24,24s10.7,24,24,24s24-10.7,24-24S225.3,298.3,212,298.3z M212,330.3
			c-4.4,0-8-3.6-8-8s3.6-8,8-8s8,3.6,8,8S216.4,330.3,212,330.3z"/>
	</g>
</g>
<g>
	<g>
		<path class="st0" d="M84,362.3c-13.3,0-24,10.7-24,24s10.7,24,24,24s24-10.7,24-24S97.3,362.3,84,362.3z M84,394.3
			c-4.4,0-8-3.6-8-8s3.6-8,8-8s8,3.6,8,8S88.4,394.3,84,394.3z"/>
	</g>
</g>
<g>
	<g>
		<path class="st0" d="M148,362.3c-13.3,0-24,10.7-24,24s10.7,24,24,24s24-10.7,24-24S161.3,362.3,148,362.3z M148,394.3
			c-4.4,0-8-3.6-8-8s3.6-8,8-8s8,3.6,8,8S152.4,394.3,148,394.3z"/>
	</g>
</g>
<g>
	<g>
		<path class="st0" d="M212,362.3c-13.3,0-24,10.7-24,24s10.7,24,24,24s24-10.7,24-24S225.3,362.3,212,362.3z M212,394.3
			c-4.4,0-8-3.6-8-8s3.6-8,8-8s8,3.6,8,8S216.4,394.3,212,394.3z"/>
	</g>
</g>
<g>
	<g>
		<path class="st0" d="M84,426.3c-13.3,0-24,10.7-24,24s10.7,24,24,24s24-10.7,24-24S97.3,426.3,84,426.3z M84,458.3
			c-4.4,0-8-3.6-8-8s3.6-8,8-8s8,3.6,8,8S88.4,458.3,84,458.3z"/>
	</g>
</g>
<g>
	<g>
		<path class="st0" d="M148,426.3c-13.3,0-24,10.7-24,24s10.7,24,24,24s24-10.7,24-24S161.3,426.3,148,426.3z M148,458.3
			c-4.4,0-8-3.6-8-8s3.6-8,8-8s8,3.6,8,8S152.4,458.3,148,458.3z"/>
	</g>
</g>
<g>
	<g>
		<path class="st0" d="M212,426.3c-13.3,0-24,10.7-24,24s10.7,24,24,24s24-10.7,24-24S225.3,426.3,212,426.3z M212,458.3
			c-4.4,0-8-3.6-8-8s3.6-8,8-8s8,3.6,8,8S216.4,458.3,212,458.3z"/>
	</g>
</g>
<g>
	<g>
		<path class="st0" d="M276,186.3h-32V95.2l-36.8-36.9H52v128H-6.4c-7.1-23.7-28.9-39.9-53.6-40h-16c-24.7,0.1-46.5,16.3-53.6,40
			H-156c-13.3,0-24,10.7-24,24v272c0,13.3,10.7,24,24,24h29.5c9.3,19.5,28.9,32,50.5,32h16c21.6,0,41.3-12.5,50.5-32H276
			c13.3,0,24-10.7,24-24v-272C300,197,289.3,186.3,276,186.3z M-156,490.3c-4.4,0-8-3.6-8-8v-272c0-4.4,3.6-8,8-8h24v280
			c0,2.7,0.2,5.4,0.6,8H-156z M-20,482.3c0,22.1-17.9,40-40,40h-16c-22.1,0-40-17.9-40-40v-280c0-22.1,17.9-40,40-40h16
			c22.1,0,40,17.9,40,40V482.3z M68,74.3h132.6l27.4,27.5v84.5H68V74.3z M284,482.3c0,4.4-3.6,8-8,8H-4.6c0.4-2.6,0.6-5.3,0.6-8
			v-280h280c4.4,0,8,3.6,8,8V482.3z"/>
	</g>
</g>
<g>
	<g>
		<path class="st0" d="M52,218.3v64h192v-64H52z M228,266.3H68v-32h160V266.3z"/>
	</g>
</g>
<g>
	<g>
		<rect x="84" y="90.3" class="st0" width="112" height="16"/>
	</g>
</g>
<g>
	<g>
		<rect x="84" y="122.3" class="st0" width="112" height="16"/>
	</g>
</g>
<g>
	<g>
		<rect x="84" y="154.3" class="st0" width="112" height="16"/>
	</g>
</g>
</svg>
