<?xml version="1.0" encoding="utf-8"?>
<!-- Generator: Adobe Illustrator 19.0.0, SVG Export Plug-In . SVG Version: 6.00 Build 0)  -->
<svg version="1.1" id="Layer_1" xmlns="http://www.w3.org/2000/svg" xmlns:xlink="http://www.w3.org/1999/xlink" x="0px" y="0px"
	 viewBox="-164 42.3 512 512" style="enable-background:new -164 42.3 512 512;" xml:space="preserve">
<style type="text/css">
	.st0{fill:#FFFFFF;}
</style>
<g>
	<g>
		<g>
			<path class="st0" d="M305.3,400.7H66.4c-4.7,0-8.5,3.8-8.5,8.5s3.8,8.5,8.5,8.5h238.9c4.7,0,8.5-3.8,8.5-8.5
				S310,400.7,305.3,400.7z"/>
			<path class="st0" d="M271.2,230h-34.1c-4.7,0-8.5,3.8-8.5,8.5s3.8,8.5,8.5,8.5h34.1c4.7,0,8.5-3.8,8.5-8.5S275.9,230,271.2,230z"
				/>
			<path class="st0" d="M271.2,332.4h-34.1c-4.7,0-8.5,3.8-8.5,8.5s3.8,8.5,8.5,8.5h34.1c4.7,0,8.5-3.8,8.5-8.5
				S275.9,332.4,271.2,332.4z"/>
			<path class="st0" d="M271.2,281.2h-34.1c-4.7,0-8.5,3.8-8.5,8.5c0,4.7,3.8,8.5,8.5,8.5h34.1c4.7,0,8.5-3.8,8.5-8.5
				C279.7,285,275.9,281.2,271.2,281.2z"/>
			<path class="st0" d="M49.3,434.8h-8.5V67.9c0-14.1-11.5-25.6-25.6-25.6H-87.2c-14.1,0-25.6,11.5-25.6,25.6v341.3
				c0,4.7,3.8,8.5,8.5,8.5s8.5-3.8,8.5-8.5V67.9c0-4.7,3.8-8.5,8.5-8.5H15.2c4.7,0,8.5,3.8,8.5,8.5v409.6c0,4.7-3.8,8.5-8.5,8.5
				H-87.2c-4.7,0-8.5-3.8-8.5-8.5v-34.1c0-4.7-3.8-8.5-8.5-8.5h-17.1c-15.3,0-25.6-10.3-25.6-25.6V102c0-9.1,4.8-17.3,12.8-22
				c4.1-2.4,5.5-7.6,3.1-11.7c-2.4-4.1-7.6-5.5-11.7-3.1C-155.8,72.9-164,87-164,102v307.2c0,24.7,17.9,42.7,42.7,42.7h8.5v25.6
				c0,14.1,11.5,25.6,25.6,25.6H15.2c14.1,0,25.6-11.5,25.6-25.6v-25.6h8.5c4.7,0,8.5-3.8,8.5-8.5S54,434.8,49.3,434.8z"/>
			<path class="st0" d="M288.3,434.8c-4.7,0-8.5,3.8-8.5,8.5v93.9H92v-93.9c0-4.7-3.8-8.5-8.5-8.5s-8.5,3.8-8.5,8.5v102.4
				c0,4.7,3.8,8.5,8.5,8.5h204.8c4.7,0,8.5-3.8,8.5-8.5V443.3C296.8,438.6,293,434.8,288.3,434.8z"/>
			<path class="st0" d="M134.7,503.1H220c4.7,0,8.5-3.8,8.5-8.5s-3.8-8.5-8.5-8.5h-85.3c-4.7,0-8.5,3.8-8.5,8.5
				C126.1,499.3,130,503.1,134.7,503.1z"/>
			<path class="st0" d="M134.7,468.9h102.4c4.7,0,8.5-3.8,8.5-8.5s-3.8-8.5-8.5-8.5H134.7c-4.7,0-8.5,3.8-8.5,8.5
				S130,468.9,134.7,468.9z"/>
			<path class="st0" d="M100.5,298.3h34.1c4.7,0,8.5-3.8,8.5-8.5c0-4.7-3.8-8.5-8.5-8.5h-34.1c-4.7,0-8.5,3.8-8.5,8.5
				C92,294.5,95.8,298.3,100.5,298.3z"/>
			<path class="st0" d="M100.5,247.1h34.1c4.7,0,8.5-3.8,8.5-8.5s-3.8-8.5-8.5-8.5h-34.1c-4.7,0-8.5,3.8-8.5,8.5
				S95.8,247.1,100.5,247.1z"/>
			<path class="st0" d="M100.5,349.5h34.1c4.7,0,8.5-3.8,8.5-8.5s-3.8-8.5-8.5-8.5h-34.1c-4.7,0-8.5,3.8-8.5,8.5
				S95.8,349.5,100.5,349.5z"/>
			<path class="st0" d="M305.3,59.3H66.4c-4.7,0-8.5,3.8-8.5,8.5s3.8,8.5,8.5,8.5h238.9c14.1,0,25.6,11.5,25.6,25.6v315.7
				c0,9-4.8,17.5-12.7,22.1c-4.1,2.4-5.4,7.6-3,11.7c1.6,2.7,4.4,4.2,7.4,4.2c1.5,0,3-0.4,4.3-1.2c13-7.6,21.1-21.7,21.1-36.8V102
				C348,78.5,328.9,59.3,305.3,59.3z"/>
			<path class="st0" d="M202.9,281.2h-34.1c-4.7,0-8.5,3.8-8.5,8.5c0,4.7,3.8,8.5,8.5,8.5h34.1c4.7,0,8.5-3.8,8.5-8.5
				C211.5,285,207.6,281.2,202.9,281.2z"/>
			<path class="st0" d="M279.7,136.1c0-4.7-3.8-8.5-8.5-8.5H100.5c-4.7,0-8.5,3.8-8.5,8.5v51.2c0,4.7,3.8,8.5,8.5,8.5h170.7
				c4.7,0,8.5-3.8,8.5-8.5V136.1z M262.7,178.8H109.1v-34.1h153.6V178.8z"/>
			<path class="st0" d="M202.9,332.4h-34.1c-4.7,0-8.5,3.8-8.5,8.5s3.8,8.5,8.5,8.5h34.1c4.7,0,8.5-3.8,8.5-8.5
				S207.6,332.4,202.9,332.4z"/>
			<path class="st0" d="M202.9,230h-34.1c-4.7,0-8.5,3.8-8.5,8.5s3.8,8.5,8.5,8.5h34.1c4.7,0,8.5-3.8,8.5-8.5S207.6,230,202.9,230z"
				/>
		</g>
	</g>
</g>
</svg>
