<?xml version="1.0" encoding="utf-8"?>
<!-- Generator: Adobe Illustrator 19.0.0, SVG Export Plug-In . SVG Version: 6.00 Build 0)  -->
<svg version="1.1" id="Capa_1" xmlns="http://www.w3.org/2000/svg" xmlns:xlink="http://www.w3.org/1999/xlink" x="0px" y="0px"
	 viewBox="-164 42.3 512 512" style="enable-background:new -164 42.3 512 512;" xml:space="preserve">
<style type="text/css">
	.st0{fill:#FFFFFF;}
</style>
<g>
	<g>
		<path class="st0" d="M315.8,261.5V162c0-4.2-3.4-7.6-7.6-7.6h-22V87.9c0-4.2-3.4-7.6-7.6-7.6H44.2c-4.2,0-7.6,3.4-7.6,7.6v66.5
			h-22c-4.2,0-7.6,3.4-7.6,7.6v53.3h-63.8c-11.3-12.4-27.5-20.3-45.6-20.3c-34,0-61.6,27.6-61.6,61.6v198.1
			c0,34,27.6,61.6,61.6,61.6h416c19,0,34.5-15.5,34.5-34.5v-186C348,277.6,333.7,262.6,315.8,261.5z M286.2,169.6h14.4v91.8h-14.4
			V169.6z M22.2,169.6h14.4v91.8H22.2V169.6z M-19.4,501.1H-62c12.9-11.3,21.1-27.9,21.1-46.4v-38.5c0-4.2-3.4-7.6-7.6-7.6
			s-7.6,3.4-7.6,7.6v37.7c0,25.4-20.1,46.7-45.5,47.2c-26,0.5-47.3-20.5-47.3-46.4V257.4c0-25.4,20.1-46.7,45.5-47.2
			c26-0.5,47.3,20.5,47.3,46.4v124.2c0,4.2,3.4,7.6,7.6,7.6c4.2,0,7.6-3.4,7.6-7.6V256.6c0-9.3-2.1-18.2-5.8-26.1H7v31
			c-18,1.2-32.2,16.1-32.2,34.4v186C-25.3,489-23.1,495.6-19.4,501.1z M332.8,481.8L332.8,481.8c0,10.6-8.6,19.3-19.3,19.3H9.2
			c-10.6,0-19.3-8.6-19.3-19.3v-186c0-10.6,8.6-19.3,19.3-19.3h152.2v0h43.3c4.2,0,7.6-3.4,7.6-7.6c0-4.2-3.4-7.6-7.6-7.6H51.8V95.5
			H271v165.9h-30.8c-4.2,0-7.6,3.4-7.6,7.6c0,4.2,3.4,7.6,7.6,7.6H260v0h53.5c10.6,0,19.3,8.6,19.3,19.3L332.8,481.8L332.8,481.8z"
			/>
	</g>
</g>
<g>
	<g>
		<path class="st0" d="M241.8,116.2H81c-4.2,0-7.6,3.4-7.6,7.6s3.4,7.6,7.6,7.6h160.8c4.2,0,7.6-3.4,7.6-7.6S246,116.2,241.8,116.2z
			"/>
	</g>
</g>
<g>
	<g>
		<path class="st0" d="M241.8,192.6H81c-4.2,0-7.6,3.4-7.6,7.6c0,4.2,3.4,7.6,7.6,7.6h160.8c4.2,0,7.6-3.4,7.6-7.6
			C249.4,196,246,192.6,241.8,192.6z"/>
	</g>
</g>
<g>
	<g>
		<path class="st0" d="M241.8,230.8H81c-4.2,0-7.6,3.4-7.6,7.6s3.4,7.6,7.6,7.6h160.8c4.2,0,7.6-3.4,7.6-7.6
			C249.4,234.2,246,230.8,241.8,230.8z"/>
	</g>
</g>
<g>
	<g>
		<path class="st0" d="M241.8,154.4H81c-4.2,0-7.6,3.4-7.6,7.6s3.4,7.6,7.6,7.6h160.8c4.2,0,7.6-3.4,7.6-7.6S246,154.4,241.8,154.4z
			"/>
	</g>
</g>
<g>
	<g>
		<path class="st0" d="M307.9,294.1H176c-4.2,0-7.6,3.4-7.6,7.6v59.7c0,4.2,3.4,7.6,7.6,7.6h131.9c4.2,0,7.6-3.4,7.6-7.6v-59.7
			C315.5,297.5,312.1,294.1,307.9,294.1z M300.3,353.8H183.6v-44.5h116.7V353.8z"/>
	</g>
</g>
<g>
	<g>
		<path class="st0" d="M199.6,382.8H176c-4.2,0-7.6,3.4-7.6,7.6s3.4,7.6,7.6,7.6h23.6c4.2,0,7.6-3.4,7.6-7.6
			S203.8,382.8,199.6,382.8z"/>
	</g>
</g>
<g>
	<g>
		<path class="st0" d="M307.9,382.9h-23.6c-4.2,0-7.6,3.4-7.6,7.6s3.4,7.6,7.6,7.6h23.6c4.2,0,7.6-3.4,7.6-7.6
			S312.1,382.9,307.9,382.9z"/>
	</g>
</g>
<g>
	<g>
		<path class="st0" d="M253.7,382.8h-23.6c-4.2,0-7.6,3.4-7.6,7.6s3.4,7.6,7.6,7.6h23.6c4.2,0,7.6-3.4,7.6-7.6
			S257.9,382.8,253.7,382.8z"/>
	</g>
</g>
<g>
	<g>
		<path class="st0" d="M199.6,411.4H176c-4.2,0-7.6,3.4-7.6,7.6s3.4,7.6,7.6,7.6h23.6c4.2,0,7.6-3.4,7.6-7.6
			S203.8,411.4,199.6,411.4z"/>
	</g>
</g>
<g>
	<g>
		<path class="st0" d="M307.9,411.4h-23.6c-4.2,0-7.6,3.4-7.6,7.6s3.4,7.6,7.6,7.6h23.6c4.2,0,7.6-3.4,7.6-7.6
			S312.1,411.4,307.9,411.4z"/>
	</g>
</g>
<g>
	<g>
		<path class="st0" d="M253.7,411.3h-23.6c-4.2,0-7.6,3.4-7.6,7.6s3.4,7.6,7.6,7.6h23.6c4.2,0,7.6-3.4,7.6-7.6
			S257.9,411.3,253.7,411.3z"/>
	</g>
</g>
<g>
	<g>
		<path class="st0" d="M199.6,439.9H176c-4.2,0-7.6,3.4-7.6,7.6s3.4,7.6,7.6,7.6h23.6c4.2,0,7.6-3.4,7.6-7.6
			S203.8,439.9,199.6,439.9z"/>
	</g>
</g>
<g>
	<g>
		<path class="st0" d="M307.9,439.9h-23.6c-4.2,0-7.6,3.4-7.6,7.6s3.4,7.6,7.6,7.6h23.6c4.2,0,7.6-3.4,7.6-7.6
			S312.1,439.9,307.9,439.9z"/>
	</g>
</g>
<g>
	<g>
		<path class="st0" d="M253.7,439.8h-23.6c-4.2,0-7.6,3.4-7.6,7.6c0,4.2,3.4,7.6,7.6,7.6h23.6c4.2,0,7.6-3.4,7.6-7.6
			C261.3,443.2,257.9,439.8,253.7,439.8z"/>
	</g>
</g>
<g>
	<g>
		<path class="st0" d="M199.6,468.4H176c-4.2,0-7.6,3.4-7.6,7.6s3.4,7.6,7.6,7.6h23.6c4.2,0,7.6-3.4,7.6-7.6
			S203.8,468.4,199.6,468.4z"/>
	</g>
</g>
<g>
	<g>
		<path class="st0" d="M307.9,468.4h-23.6c-4.2,0-7.6,3.4-7.6,7.6s3.4,7.6,7.6,7.6h23.6c4.2,0,7.6-3.4,7.6-7.6
			S312.1,468.4,307.9,468.4z"/>
	</g>
</g>
<g>
	<g>
		<path class="st0" d="M253.7,468.3h-23.6c-4.2,0-7.6,3.4-7.6,7.6c0,4.2,3.4,7.6,7.6,7.6h23.6c4.2,0,7.6-3.4,7.6-7.6
			C261.3,471.7,257.9,468.3,253.7,468.3z"/>
	</g>
</g>
</svg>
