<?xml version="1.0" encoding="utf-8"?>
<!-- Generator: Adobe Illustrator 19.0.0, SVG Export Plug-In . SVG Version: 6.00 Build 0)  -->
<svg version="1.1" id="Capa_1" xmlns="http://www.w3.org/2000/svg" xmlns:xlink="http://www.w3.org/1999/xlink" x="0px" y="0px"
	 viewBox="-164 42.3 512 512" style="enable-background:new -164 42.3 512 512;" xml:space="preserve">
<style type="text/css">
	.st0{fill:#FFFFFF;}
</style>
<g>
	<g>
		<path class="st0" d="M172.2,106.4H11.8c-4.1,0-7.5,3.4-7.5,7.5s3.4,7.5,7.5,7.5h160.3c4.2,0,7.5-3.4,7.5-7.5
			C179.7,109.8,176.3,106.4,172.2,106.4z"/>
	</g>
</g>
<g>
	<g>
		<path class="st0" d="M172.2,146.5H11.8c-4.1,0-7.5,3.4-7.5,7.5c0,4.2,3.4,7.5,7.5,7.5h160.3c4.2,0,7.5-3.4,7.5-7.5
			C179.7,149.8,176.3,146.5,172.2,146.5z"/>
	</g>
</g>
<g>
	<g>
		<path class="st0" d="M172.2,186.6H11.8c-4.1,0-7.5,3.4-7.5,7.5s3.4,7.5,7.5,7.5h160.3c4.2,0,7.5-3.4,7.5-7.5
			C179.7,189.9,176.3,186.6,172.2,186.6z"/>
	</g>
</g>
<g>
	<g>
		<path class="st0" d="M316.4,226.6h-32.6V154c0-4.1-3.4-7.5-7.5-7.5h-40.6V73.8c0-4.2-3.4-7.5-7.5-7.5H-44.3
			c-4.2,0-7.5,3.4-7.5,7.5v72.6h-40.6c-4.2,0-7.5,3.4-7.5,7.5v72.6h-32.6c-17.4,0-31.6,14.2-31.6,31.6v240.5
			c0,17.4,14.2,31.6,31.6,31.6h448.9c17.4,0,31.6-14.2,31.6-31.6V258.2C348,240.8,333.8,226.6,316.4,226.6z M235.8,161.5h33.1v65.1
			h-33.1V161.5z M-36.8,81.4h257.5v145.3H-36.8V81.4z M-84.8,161.5h33.1v65.1h-33.1V161.5z M333,498.7c0,9.1-7.4,16.5-16.5,16.5
			h-273V334.4c0-4.1-3.4-7.5-7.5-7.5s-7.5,3.4-7.5,7.5v180.9h-160.8c-9.1,0-16.5-7.4-16.5-16.5V258.2c0-9.1,7.4-16.5,16.5-16.5H28.4
			v56.9c0,4.1,3.4,7.5,7.5,7.5s7.5-3.4,7.5-7.5v-56.9h273c9.1,0,16.5,7.4,16.5,16.5L333,498.7L333,498.7z"/>
	</g>
</g>
<g>
	<g>
		<path class="st0" d="M-28.2,250.7h-64.1c-21.8,0-39.6,17.8-39.6,39.6v176.3c0,21.8,17.8,39.6,39.6,39.6h64.1
			c21.8,0,39.6-17.8,39.6-39.6V290.3C11.3,268.4-6.4,250.7-28.2,250.7z M-3.7,466.6c0,13.5-11,24.5-24.5,24.5h-64.1
			c-13.5,0-24.5-11-24.5-24.5V290.3c0-13.5,11-24.5,24.5-24.5h64.1c13.5,0,24.5,11,24.5,24.5V466.6z"/>
	</g>
</g>
<g>
	<g>
		<path class="st0" d="M300.4,266.7H76c-4.1,0-7.5,3.4-7.5,7.5v80.2c0,4.1,3.4,7.5,7.5,7.5h224.4c4.2,0,7.5-3.4,7.5-7.5v-80.2
			C307.9,270.1,304.6,266.7,300.4,266.7z M292.9,346.9H83.5v-65.1h209.4V346.9z"/>
	</g>
</g>
<g>
	<g>
		<path class="st0" d="M108,387H76c-4.1,0-7.5,3.4-7.5,7.5v32.1c0,4.1,3.4,7.5,7.5,7.5H108c4.2,0,7.5-3.4,7.5-7.5v-32.1
			C115.5,390.3,112.2,387,108,387z M100.5,419h-17v-17h17V419z"/>
	</g>
</g>
<g>
	<g>
		<path class="st0" d="M172.2,387h-32.1c-4.2,0-7.5,3.4-7.5,7.5v32.1c0,4.1,3.4,7.5,7.5,7.5h32.1c4.2,0,7.5-3.4,7.5-7.5v-32.1
			C179.7,390.3,176.3,387,172.2,387z M164.6,419h-17v-17h17V419z"/>
	</g>
</g>
<g>
	<g>
		<path class="st0" d="M236.3,387h-32.1c-4.2,0-7.5,3.4-7.5,7.5v32.1c0,4.1,3.4,7.5,7.5,7.5h32.1c4.2,0,7.5-3.4,7.5-7.5v-32.1
			C243.8,390.3,240.4,387,236.3,387z M228.8,419h-17v-17h17V419z"/>
	</g>
</g>
<g>
	<g>
		<path class="st0" d="M300.4,387h-32.1c-4.2,0-7.5,3.4-7.5,7.5v32.1c0,4.1,3.4,7.5,7.5,7.5h32.1c4.2,0,7.5-3.4,7.5-7.5v-32.1
			C307.9,390.3,304.6,387,300.4,387z M292.9,419h-17v-17h17V419z"/>
	</g>
</g>
<g>
	<g>
		<path class="st0" d="M108,451.1H76c-4.1,0-7.5,3.4-7.5,7.5v32.1c0,4.1,3.4,7.5,7.5,7.5H108c4.2,0,7.5-3.4,7.5-7.5v-32.1
			C115.5,454.4,112.2,451.1,108,451.1z M100.5,483.1h-17v-17h17V483.1z"/>
	</g>
</g>
<g>
	<g>
		<path class="st0" d="M172.2,451.1h-32.1c-4.2,0-7.5,3.4-7.5,7.5v32.1c0,4.1,3.4,7.5,7.5,7.5h32.1c4.2,0,7.5-3.4,7.5-7.5v-32.1
			C179.7,454.4,176.3,451.1,172.2,451.1z M164.6,483.1h-17v-17h17V483.1z"/>
	</g>
</g>
<g>
	<g>
		<path class="st0" d="M236.3,451.1h-32.1c-4.2,0-7.5,3.4-7.5,7.5v32.1c0,4.1,3.4,7.5,7.5,7.5h32.1c4.2,0,7.5-3.4,7.5-7.5v-32.1
			C243.8,454.4,240.4,451.1,236.3,451.1z M228.8,483.1h-17v-17h17V483.1z"/>
	</g>
</g>
<g>
	<g>
		<path class="st0" d="M300.4,451.1h-32.1c-4.2,0-7.5,3.4-7.5,7.5v32.1c0,4.1,3.4,7.5,7.5,7.5h32.1c4.2,0,7.5-3.4,7.5-7.5v-32.1
			C307.9,454.4,304.6,451.1,300.4,451.1z M292.9,483.1h-17v-17h17V483.1z"/>
	</g>
</g>
</svg>
