<?xml version="1.0" encoding="utf-8"?>
<!-- Generator: Adobe Illustrator 19.0.0, SVG Export Plug-In . SVG Version: 6.00 Build 0)  -->
<svg version="1.1" id="Capa_1" xmlns="http://www.w3.org/2000/svg" xmlns:xlink="http://www.w3.org/1999/xlink" x="0px" y="0px"
	 viewBox="-188 65.3 465 465" style="enable-background:new -188 65.3 465 465;" xml:space="preserve">
<style type="text/css">
	.st0{fill:#FFFFFF;}
</style>
<g>
	<path class="st0" d="M112.9,461.3H1.6c-4.1,0-7.5,3.4-7.5,7.5s3.4,7.5,7.5,7.5h111.3c4.1,0,7.5-3.4,7.5-7.5S117,461.3,112.9,461.3z
		"/>
	<path class="st0" d="M112.9,431.3H1.6c-4.1,0-7.5,3.4-7.5,7.5s3.4,7.5,7.5,7.5h111.3c4.1,0,7.5-3.4,7.5-7.5S117,431.3,112.9,431.3z
		"/>
	<path class="st0" d="M112.9,401.3H1.6c-4.1,0-7.5,3.4-7.5,7.5s3.4,7.5,7.5,7.5h111.3c4.1,0,7.5-3.4,7.5-7.5S117,401.3,112.9,401.3z
		"/>
	<path class="st0" d="M112.9,320.5H1.6c-4.1,0-7.5,3.4-7.5,7.5v37.7c0,4.1,3.4,7.5,7.5,7.5h20c4.1,0,7.5-3.4,7.5-7.5
		s-3.4-7.5-7.5-7.5H9.1v-22.7h96.3v22.7H51.6c-4.1,0-7.5,3.4-7.5,7.5s3.4,7.5,7.5,7.5h61.3c4.1,0,7.5-3.4,7.5-7.5V328
		C120.4,323.9,117,320.5,112.9,320.5z"/>
	<path class="st0" d="M192.9,320.5c-22.7,0-41.1,18.4-41.1,41.1s18.4,41.1,41.1,41.1s41.1-18.4,41.1-41.1S215.5,320.5,192.9,320.5z
		 M192.9,387.8c-14.4,0-26.1-11.7-26.1-26.1s11.7-26.1,26.1-26.1s26.1,11.7,26.1,26.1S207.3,387.8,192.9,387.8z"/>
	<path class="st0" d="M251.5,274H237v-93.1c0-4.1-3.4-7.5-7.5-7.5h-24.6V80.3c0-4.1-3.4-7.5-7.5-7.5H28.3c-4.1,0-7.5,3.4-7.5,7.5
		v93.1H-3.8c-4.1,0-7.5,3.4-7.5,7.5V274h-26.2c-0.8-42.2-2.1-72.2-2.1-72.6c0,0,0-0.1,0-0.1c-0.5-7.8-5.8-15.1-12.9-18.3
		c-3.3-3.2-11.3-5.1-39.9-5.1s-36.7,2-39.9,5.1c-7.1,3.2-12.4,10.5-12.9,18.3c0,0,0,0.1,0,0.1c0,0.4-1.3,30.4-2.1,72.6h-15
		c-14.1,0-25.5,11.4-25.5,25.5v197.8c0,14.1,11.4,25.5,25.5,25.5h414c14.1,0,25.5-11.4,25.5-25.5V299.5
		C277,285.4,265.6,274,251.5,274z M222,188.4V274h-17.1v-85.6H222z M35.8,87.8h154.1V274H35.8V87.8z M3.7,188.4h17.1V274H3.7V188.4z
		 M-130.4,202.1c0.2-2.3,2.6-5.1,4.8-5.7c1.3-0.3,2.5-1,3.4-1.9c2.5-0.6,9.8-1.7,29.7-1.7s27.2,1.1,29.7,1.7
		c0.9,0.9,2.1,1.6,3.4,1.9c2.2,0.6,4.6,3.4,4.8,5.7c0.1,2.5,2.6,60.5,2.6,128.2c0,67.7-2.5,125.7-2.6,128.2
		c-0.2,2.3-2.6,5.1-4.8,5.7c-1.3,0.3-2.5,1-3.4,1.9c-2.5,0.6-9.8,1.7-29.7,1.7s-27.2-1.1-29.7-1.7c-0.9-0.9-2.1-1.6-3.4-1.9
		c-2.2-0.6-4.6-3.4-4.8-5.7c-0.1-2.5-2.6-60.5-2.6-128.2C-133,262.6-130.5,204.6-130.4,202.1z M262,497.3c0,5.8-4.7,10.5-10.5,10.5
		h-414c-5.8,0-10.5-4.7-10.5-10.5V299.5c0-5.8,4.7-10.5,10.5-10.5h14.8c-0.2,13-0.3,27-0.3,41.3c0,69.2,2.6,128.3,2.7,128.9
		c0,0,0,0.1,0,0.1c0.5,7.8,5.8,15.1,12.9,18.3c3.3,3.2,11.3,5.1,39.9,5.1c28.6,0,36.7-2,39.9-5.1c7.1-3.2,12.4-10.5,12.9-18.3
		c0,0,0-0.1,0-0.1c0-0.6,2.6-59.7,2.7-128.9c0-14.3-0.1-28.3-0.3-41.3h288.8c5.8,0,10.5,4.7,10.5,10.5V497.3z"/>
	<path class="st0" d="M74.2,238.7h38.7c4.1,0,7.5-3.4,7.5-7.5s-3.4-7.5-7.5-7.5H74.2c-4.1,0-7.5,3.4-7.5,7.5S70,238.7,74.2,238.7z"
		/>
	<path class="st0" d="M74.2,188.4h77.4c4.1,0,7.5-3.4,7.5-7.5s-3.4-7.5-7.5-7.5H74.2c-4.1,0-7.5,3.4-7.5,7.5S70,188.4,74.2,188.4z"
		/>
	<path class="st0" d="M74.2,138.1h77.4c4.1,0,7.5-3.4,7.5-7.5c0-4.1-3.4-7.5-7.5-7.5H74.2c-4.1,0-7.5,3.4-7.5,7.5
		C66.7,134.7,70,138.1,74.2,138.1z"/>
</g>
</svg>
