<?xml version="1.0" encoding="utf-8"?>
<!-- Generator: Adobe Illustrator 19.0.0, SVG Export Plug-In . SVG Version: 6.00 Build 0)  -->
<svg version="1.1" id="Capa_1" xmlns="http://www.w3.org/2000/svg" xmlns:xlink="http://www.w3.org/1999/xlink" x="0px" y="0px"
	 viewBox="-172 50.3 496 496" style="enable-background:new -172 50.3 496 496;" xml:space="preserve">
<style type="text/css">
	.st0{fill:#FFFFFF;}
</style>
<g>
	<g>
		<path class="st0" d="M284,170.3h-16v-120H-4v120h-40v-44.7c0-9.4-3.7-18.3-10.3-25s-15.5-10.3-25-10.3h-57.4
			c-9.4,0-18.3,3.7-25,10.3c-6.7,6.7-10.3,15.5-10.3,25v88l16,16V367l-16,16v88c0,9.4,3.7,18.3,10.3,25c6.6,6.6,15.7,10.3,25,10.3
			h20.7c0,22.1,17.9,40,40,40h56c22.1,0,40-17.9,40-40v-48h264c22.1,0,40-17.9,40-40v-208C324,188.2,306.1,170.3,284,170.3z
			 M12,66.3h240v152H12V66.3z M-136.7,490.3c-5.1,0-10.1-2.1-13.7-5.7c-3.6-3.6-5.7-8.5-5.7-13.7v-81.4l16-16V223l-16-16v-81.4
			c0-5.2,2-10,5.7-13.7c3.6-3.6,8.5-5.7,13.7-5.7h57.4c5.2,0,10,2,13.7,5.7c3.6,3.6,5.7,8.5,5.7,13.6V207l-16,16v150.6l16,16V471
			c0,5.2-2,10-5.7,13.7s-8.5,5.7-13.7,5.7H-136.7z M4,506.3c0,13.2-10.8,24-24,24h-56c-13.2,0-24-10.8-24-24h20.7
			c9.4,0,18.3-3.7,25-10.3S-44,480.4-44,471v-12.7H4V506.3z M308,418.3c0,13.2-10.8,24-24,24H-44V383l-16-16V229.6l16-16v-27.3h40
			v32h-16v16h304v-16h-16v-32h16c13.2,0,24,10.8,24,24V418.3z"/>
	</g>
</g>
<g>
	<g>
		<path class="st0" d="M236,274.3c-26.5,0-48,21.5-48,48s21.5,48,48,48s48-21.5,48-48S262.5,274.3,236,274.3z M236,354.3
			c-17.6,0-32-14.4-32-32s14.4-32,32-32s32,14.4,32,32C268,339.9,253.6,354.3,236,354.3z"/>
	</g>
</g>
<g>
	<g>
		<rect x="28" y="82.3" class="st0" width="208" height="16"/>
	</g>
</g>
<g>
	<g>
		<rect x="28" y="178.3" class="st0" width="176" height="16"/>
	</g>
</g>
<g>
	<g>
		<rect x="60" y="114.3" class="st0" width="176" height="16"/>
	</g>
</g>
<g>
	<g>
		<rect x="28" y="146.3" class="st0" width="208" height="16"/>
	</g>
</g>
<g>
	<g>
		<rect x="-92" y="426.3" class="st0" width="16" height="48"/>
	</g>
</g>
<g>
	<g>
		<path class="st0" d="M12,250.3c-13.2,0-24,10.8-24,24s10.8,24,24,24s24-10.8,24-24S25.2,250.3,12,250.3z M12,282.3
			c-4.4,0-8-3.6-8-8c0-4.4,3.6-8,8-8s8,3.6,8,8C20,278.7,16.4,282.3,12,282.3z"/>
	</g>
</g>
<g>
	<g>
		<path class="st0" d="M76,250.3c-13.2,0-24,10.8-24,24s10.8,24,24,24s24-10.8,24-24S89.2,250.3,76,250.3z M76,282.3
			c-4.4,0-8-3.6-8-8c0-4.4,3.6-8,8-8s8,3.6,8,8C84,278.7,80.4,282.3,76,282.3z"/>
	</g>
</g>
<g>
	<g>
		<path class="st0" d="M140,250.3c-13.2,0-24,10.8-24,24s10.8,24,24,24s24-10.8,24-24S153.2,250.3,140,250.3z M140,282.3
			c-4.4,0-8-3.6-8-8c0-4.4,3.6-8,8-8s8,3.6,8,8C148,278.7,144.4,282.3,140,282.3z"/>
	</g>
</g>
<g>
	<g>
		<path class="st0" d="M12,314.3c-13.2,0-24,10.8-24,24s10.8,24,24,24s24-10.8,24-24S25.2,314.3,12,314.3z M12,346.3
			c-4.4,0-8-3.6-8-8s3.6-8,8-8s8,3.6,8,8S16.4,346.3,12,346.3z"/>
	</g>
</g>
<g>
	<g>
		<path class="st0" d="M76,314.3c-13.2,0-24,10.8-24,24s10.8,24,24,24s24-10.8,24-24S89.2,314.3,76,314.3z M76,346.3
			c-4.4,0-8-3.6-8-8s3.6-8,8-8s8,3.6,8,8S80.4,346.3,76,346.3z"/>
	</g>
</g>
<g>
	<g>
		<path class="st0" d="M140,314.3c-13.2,0-24,10.8-24,24s10.8,24,24,24s24-10.8,24-24S153.2,314.3,140,314.3z M140,346.3
			c-4.4,0-8-3.6-8-8s3.6-8,8-8s8,3.6,8,8S144.4,346.3,140,346.3z"/>
	</g>
</g>
<g>
	<g>
		<path class="st0" d="M12,378.3c-13.2,0-24,10.8-24,24s10.8,24,24,24s24-10.8,24-24S25.2,378.3,12,378.3z M12,410.3
			c-4.4,0-8-3.6-8-8s3.6-8,8-8s8,3.6,8,8S16.4,410.3,12,410.3z"/>
	</g>
</g>
<g>
	<g>
		<path class="st0" d="M76,378.3c-13.2,0-24,10.8-24,24s10.8,24,24,24s24-10.8,24-24S89.2,378.3,76,378.3z M76,410.3
			c-4.4,0-8-3.6-8-8s3.6-8,8-8s8,3.6,8,8S80.4,410.3,76,410.3z"/>
	</g>
</g>
<g>
	<g>
		<path class="st0" d="M140,378.3c-13.2,0-24,10.8-24,24s10.8,24,24,24s24-10.8,24-24S153.2,378.3,140,378.3z M140,410.3
			c-4.4,0-8-3.6-8-8s3.6-8,8-8s8,3.6,8,8S144.4,410.3,140,410.3z"/>
	</g>
</g>
<g>
	<g>
		<rect x="28" y="114.3" class="st0" width="16" height="16"/>
	</g>
</g>
<g>
	<g>
		<rect x="220" y="178.3" class="st0" width="16" height="16"/>
	</g>
</g>
<g>
	<g>
		<rect x="-92" y="394.3" class="st0" width="16" height="16"/>
	</g>
</g>
<g>
	<g>
		<rect x="-140" y="154.3" class="st0" width="16" height="48"/>
	</g>
</g>
<g>
	<g>
		<rect x="-140" y="122.3" class="st0" width="16" height="16"/>
	</g>
</g>
</svg>
