<?xml version="1.0" encoding="utf-8"?>
<!-- Generator: Adobe Illustrator 19.0.0, SVG Export Plug-In . SVG Version: 6.00 Build 0)  -->
<svg version="1.1" id="Capa_1" xmlns="http://www.w3.org/2000/svg" xmlns:xlink="http://www.w3.org/1999/xlink" x="0px" y="0px"
	 viewBox="-114 -8.7 612 612" style="enable-background:new -114 -8.7 612 612;" xml:space="preserve">
<style type="text/css">
	.st0{fill:#FFFFFF;}
</style>
<g>
	<g>
		<path class="st0" d="M202.1,293.1h-38.9c-3.6,0-6.6,2.9-6.6,6.6s2.9,6.6,6.6,6.6h38.9c3.6,0,6.6-2.9,6.6-6.6
			S205.7,293.1,202.1,293.1z"/>
		<path class="st0" d="M272.5,293.1h-38.9c-3.6,0-6.6,2.9-6.6,6.6s2.9,6.6,6.6,6.6h38.9c3.6,0,6.6-2.9,6.6-6.6
			S276.1,293.1,272.5,293.1z"/>
		<path class="st0" d="M272.5,374.6h-38.9c-3.6,0-6.6,2.9-6.6,6.6c0,3.6,2.9,6.6,6.6,6.6h38.9c3.6,0,6.6-2.9,6.6-6.6
			C279,377.5,276.1,374.6,272.5,374.6z"/>
		<path class="st0" d="M422.2,153.3c-10.3-8.8-29.8-7.6-33.3-7.3H174.9c-0.3,0-7.2,0-14.2,2c-14.9,4.2-17.2,13.5-17.2,18.6v15.8
			v46.4c0,6.1,2.2,11.3,6.4,15.1c6.8,6.2,17,7.1,22.2,7.1c1.4,0,2.4-0.1,3-0.1h218.8c12.3,0,33.6-5,34.8-23.9
			c1.2-17.8,1.2-43.4,0-60.8C428.4,161.1,426.2,156.7,422.2,153.3z M415.6,226.2C415.6,226.2,415.6,226.2,415.6,226.2
			c-0.7,11.2-21.5,11.6-21.7,11.6h-219c-0.2,0-0.4,0-0.6,0c-2.8,0.2-11.6,0.1-15.5-3.6c-0.9-0.8-2.1-2.3-2.1-5.4v-46.4v-15.8
			c0-5.7,13.3-7.5,18.2-7.5h214.3c0.2,0,0.4,0,0.6,0c5.6-0.5,18.7-0.2,23.9,4.2c1.3,1.1,1.8,2.2,1.9,3.8
			C416.8,184,416.8,208.9,415.6,226.2z"/>
		<path class="st0" d="M272.5,415.3h-38.9c-3.6,0-6.6,2.9-6.6,6.6s2.9,6.6,6.6,6.6h38.9c3.6,0,6.6-2.9,6.6-6.6
			S276.1,415.3,272.5,415.3z"/>
		<path class="st0" d="M497.9,127c0-0.1,0-0.2,0-0.3c-0.9-15.1-8.7-23.1-23.4-24c-1.3-0.1-13.9-0.1-35.5-0.1V4.1
			c0-3.6-2.9-6.6-6.6-6.6H130.6c-3.6,0-6.6,2.9-6.6,6.6v98.5c-16.6,0-33.6,0-50.7,0h-0.6l0-8.1c0.5-10.4-2-18.1-7.5-22.9
			c-5.8-5.1-12.7-4.9-15-4.6l-77.8,0C-35,67.3-49,73.2-49,93.6v9.1c-23.7,0-38.8,0-41.5,0c0,0-0.1,0-0.1,0
			c-23,0-23.3,18.2-23.4,25.1l0,0.6c-0.1,3.5,0,79.3,0,159.5c0,85.2,0.1,173.4,0,182c-0.1,18,14,24.1,21.5,24.8c0.2,0,0.4,0,0.6,0
			l42.9,0v9.2c0,9.8,2.7,17.1,7.9,21.8c4.8,4.3,10.2,4.9,12.9,4.9c0.4,0,0.8,0,1,0l78,0c8.8-0.3,21.8-7.4,21.8-25.4v-10.4
			c16.1,0,33.4,0,51.3,0v95.8c0,3.6,2.9,6.6,6.6,6.6h301.9c3.6,0,6.6-2.9,6.6-6.6v-95.8c20.1,0,32.6,0,34.1,0
			c16.8-0.1,24.7-9.1,24.8-28.3C498.1,442.3,498,145.8,497.9,127z M137.1,10.7h288.7v89.3H137.1V10.7L137.1,10.7z M425.9,583.8
			H137.1v-89.2c102.6,0,223.5,0,288.7,0L425.9,583.8L425.9,583.8z M484.8,466.2c-0.1,15.2-4.9,15.2-11.7,15.3c-1.7,0-16.1,0-39.2,0
			c-0.5-0.1-1-0.2-1.5-0.2H130.6c-0.5,0-1,0.1-1.4,0.2c-22.2,0-43.5,0-63,0c-1.7,0-3.4,0.7-4.6,1.9c-1.2,1.2-1.9,2.9-1.9,4.6V505
			c0,10.6-6.9,12.1-9.2,12.3h-77.8c-0.3,0-0.4,0-0.6,0c-0.1,0-2.5,0.1-4.4-1.6c-2.2-2.1-3.4-6.2-3.4-11.9v-15.8
			c0-3.6-2.9-6.6-6.6-6.6l-49.1,0c-1.7-0.2-9.4-1.8-9.3-11.6c0.1-8.7,0-96.8,0-182.1c0-76.6-0.1-155.9,0-159.3l0-0.6
			c0.1-8.2,0.6-12.1,10.2-12.1c0,0,0.1,0,0.1,0c2.9,0,20.6,0,48.1,0c3.6,0,6.6-2.9,6.6-6.6V93.6c0-11.6,6.4-13.2,8.6-13.5h77.8
			c0.3,0,0.7,0,1-0.1c0,0,3-0.4,5,1.5c2.2,2,3.2,6.4,2.9,12.7v15c0,1.7,0.7,3.4,1.9,4.7c1.2,1.2,2.9,1.9,4.6,1.9c0,0,0,0,0,0l7.2,0
			c157-0.1,394.3-0.2,400.5,0c6,0.3,10.4,1.4,11,11.4C484.9,147.7,484.9,442.3,484.8,466.2z"/>
		<path class="st0" d="M202.1,415.3h-38.9c-3.6,0-6.6,2.9-6.6,6.6s2.9,6.6,6.6,6.6h38.9c3.6,0,6.6-2.9,6.6-6.6
			S205.7,415.3,202.1,415.3z"/>
		<path class="st0" d="M202.1,333.8h-38.9c-3.6,0-6.6,2.9-6.6,6.6s2.9,6.6,6.6,6.6h38.9c3.6,0,6.6-2.9,6.6-6.6
			S205.7,333.8,202.1,333.8z"/>
		<path class="st0" d="M202.1,374.6h-38.9c-3.6,0-6.6,2.9-6.6,6.6c0,3.6,2.9,6.6,6.6,6.6h38.9c3.6,0,6.6-2.9,6.6-6.6
			C208.7,377.5,205.7,374.6,202.1,374.6z"/>
		<path class="st0" d="M272.5,333.8h-38.9c-3.6,0-6.6,2.9-6.6,6.6s2.9,6.6,6.6,6.6h38.9c3.6,0,6.6-2.9,6.6-6.6
			S276.1,333.8,272.5,333.8z"/>
		<path class="st0" d="M342.8,415.3h-38.9c-3.6,0-6.6,2.9-6.6,6.6s2.9,6.6,6.6,6.6h38.9c3.6,0,6.6-2.9,6.6-6.6
			S346.4,415.3,342.8,415.3z"/>
		<path class="st0" d="M413.2,333.8h-38.9c-3.6,0-6.6,2.9-6.6,6.6s2.9,6.6,6.6,6.6h38.9c3.6,0,6.6-2.9,6.6-6.6
			S416.8,333.8,413.2,333.8z"/>
		<path class="st0" d="M413.2,374.6h-38.9c-3.6,0-6.6,2.9-6.6,6.6c0,3.6,2.9,6.6,6.6,6.6h38.9c3.6,0,6.6-2.9,6.6-6.6
			C419.8,377.5,416.8,374.6,413.2,374.6z"/>
		<path class="st0" d="M413.2,293.1h-38.9c-3.6,0-6.6,2.9-6.6,6.6s2.9,6.6,6.6,6.6h38.9c3.6,0,6.6-2.9,6.6-6.6
			S416.8,293.1,413.2,293.1z"/>
		<path class="st0" d="M413.2,415.3h-38.9c-3.6,0-6.6,2.9-6.6,6.6s2.9,6.6,6.6,6.6h38.9c3.6,0,6.6-2.9,6.6-6.6
			S416.8,415.3,413.2,415.3z"/>
		<path class="st0" d="M342.8,293.1h-38.9c-3.6,0-6.6,2.9-6.6,6.6s2.9,6.6,6.6,6.6h38.9c3.6,0,6.6-2.9,6.6-6.6
			S346.4,293.1,342.8,293.1z"/>
		<path class="st0" d="M342.8,374.6h-38.9c-3.6,0-6.6,2.9-6.6,6.6c0,3.6,2.9,6.6,6.6,6.6h38.9c3.6,0,6.6-2.9,6.6-6.6
			C349.4,377.5,346.4,374.6,342.8,374.6z"/>
		<path class="st0" d="M342.8,333.8h-38.9c-3.6,0-6.6,2.9-6.6,6.6s2.9,6.6,6.6,6.6h38.9c3.6,0,6.6-2.9,6.6-6.6
			S346.4,333.8,342.8,333.8z"/>
		<path class="st0" d="M-78.5,132c-3.6,0-6.6,2.9-6.6,6.6v279.6c0,3.6,2.9,6.6,6.6,6.6s6.6-2.9,6.6-6.6V138.6
			C-72,134.9-74.9,132-78.5,132z"/>
		<path class="st0" d="M157,19.1c-3.6,0-6.6,2.9-6.6,6.6V83c0,3.6,2.9,6.6,6.6,6.6s6.6-2.9,6.6-6.6V25.6
			C163.6,22,160.7,19.1,157,19.1z"/>
		<path class="st0" d="M155.6,507.5c-3.6,0-6.6,2.9-6.6,6.6v51.8c0,3.6,2.9,6.6,6.6,6.6s6.6-2.9,6.6-6.6v-51.8
			C162.2,510.4,159.2,507.5,155.6,507.5z"/>
		<path class="st0" d="M175.1,167.2c-3.6,0-6.6,2.9-6.6,6.6v44.4c0,3.6,2.9,6.6,6.6,6.6c3.6,0,6.6-2.9,6.6-6.6v-44.4
			C181.7,170.1,178.8,167.2,175.1,167.2z"/>
	</g>
</g>
</svg>
