<?xml version="1.0" encoding="utf-8"?>
<!-- Generator: Adobe Illustrator 19.0.0, SVG Export Plug-In . SVG Version: 6.00 Build 0)  -->
<svg version="1.1" id="Capa_1" xmlns="http://www.w3.org/2000/svg" xmlns:xlink="http://www.w3.org/1999/xlink" x="0px" y="0px"
	 viewBox="-180 58.3 480 480" style="enable-background:new -180 58.3 480 480;" xml:space="preserve">
<style type="text/css">
	.st0{fill:#FFFFFF;}
</style>
<g>
	<g>
		<path class="st0" d="M28,186.3v64h240v-64H28z M252,234.3H44v-32h208V234.3z"/>
	</g>
</g>
<g>
	<g>
		<path class="st0" d="M44,266.3v112h208v-112H44z M92,362.3H60v-16h32V362.3z M92,330.3H60v-16h32V330.3z M92,298.3H60v-16h32
			V298.3z M140,362.3h-32v-16h32V362.3z M140,330.3h-32v-16h32V330.3z M140,298.3h-32v-16h32V298.3z M188,362.3h-32v-16h32V362.3z
			 M188,330.3h-32v-16h32V330.3z M188,298.3h-32v-16h32V298.3z M236,362.3h-32v-16h32V362.3z M236,330.3h-32v-16h32V330.3z
			 M236,298.3h-32v-16h32V298.3z"/>
	</g>
</g>
<g>
	<g>
		<rect x="76" y="426.3" class="st0" width="16" height="16"/>
	</g>
</g>
<g>
	<g>
		<rect x="108" y="426.3" class="st0" width="112" height="16"/>
	</g>
</g>
<g>
	<g>
		<rect x="76" y="490.3" class="st0" width="16" height="16"/>
	</g>
</g>
<g>
	<g>
		<rect x="108" y="490.3" class="st0" width="112" height="16"/>
	</g>
</g>
<g>
	<g>
		<rect x="76" y="458.3" class="st0" width="16" height="16"/>
	</g>
</g>
<g>
	<g>
		<rect x="108" y="458.3" class="st0" width="112" height="16"/>
	</g>
</g>
<g>
	<g>
		<rect x="-100" y="386.3" class="st0" width="16" height="16"/>
	</g>
</g>
<g>
	<g>
		<rect x="-100" y="338.3" class="st0" width="16" height="32"/>
	</g>
</g>
<g>
	<g>
		<path class="st0" d="M260,154.3h-8v-96H44v96H-4v-24c0-13.3-10.7-24-24-24h-80c-13.3,0-24,10.7-24,24v24h-8c-22.1,0-40,17.9-40,40
			v240c0,22.1,17.9,40,40,40H44v64h208v-64h8c22.1,0,40-17.9,40-40v-240C300,172.2,282.1,154.3,260,154.3z M60,74.3h176v80H60V74.3z
			 M-116,130.3c0-4.4,3.6-8,8-8h80c4.4,0,8,3.6,8,8v288c0,4.4-3.6,8-8,8h-80c-4.4,0-8-3.6-8-8V130.3z M236,522.3H60v-112h176V522.3z
			 M284,434.3c0,13.3-10.7,24-24,24h-8v-64H44v64h-184c-13.3,0-24-10.7-24-24v-240c0-13.3,10.7-24,24-24h8v248c0,13.3,10.7,24,24,24
			h80c13.3,0,24-10.7,24-24v-248h264c13.3,0,24,10.7,24,24V434.3z"/>
	</g>
</g>
</svg>
