<?xml version="1.0" encoding="utf-8"?>
<!-- Generator: Adobe Illustrator 19.0.0, SVG Export Plug-In . SVG Version: 6.00 Build 0)  -->
<svg version="1.1" id="Capa_1" xmlns="http://www.w3.org/2000/svg" xmlns:xlink="http://www.w3.org/1999/xlink" x="0px" y="0px"
	 viewBox="-390 268.3 60 60" style="enable-background:new -390 268.3 60 60;" xml:space="preserve">
<style type="text/css">
	.st0{fill:#FFFFFF;}
</style>
<g>
	<path class="st0" d="M-340,300.3c2.8,0,5-2.2,5-5s-2.2-5-5-5s-5,2.2-5,5S-342.8,300.3-340,300.3z M-340,292.3c1.7,0,3,1.3,3,3
		s-1.3,3-3,3s-3-1.3-3-3S-341.7,292.3-340,292.3z"/>
	<path class="st0" d="M-372,277.3h18c0.6,0,1-0.4,1-1s-0.4-1-1-1h-18c-0.6,0-1,0.4-1,1S-372.6,277.3-372,277.3z"/>
	<path class="st0" d="M-348,280.3h-24c-0.6,0-1,0.4-1,1s0.4,1,1,1h24c0.6,0,1-0.4,1-1S-347.4,280.3-348,280.3z"/>
	<path class="st0" d="M-348,311.3h-24c-0.6,0-1,0.4-1,1s0.4,1,1,1h24c0.6,0,1-0.4,1-1S-347.4,311.3-348,311.3z"/>
	<path class="st0" d="M-348,316.3h-24c-0.6,0-1,0.4-1,1s0.4,1,1,1h24c0.6,0,1-0.4,1-1S-347.4,316.3-348,316.3z"/>
	<path class="st0" d="M-339,285.3v-17h-42v17h-9v34h6v3h3v6h42v-6h3v-3h6v-34H-339z M-379,270.3h38v15h-38V270.3z M-381,287.3h42h7
		v16h-56v-16H-381z M-382,320.3v-2v-1v-4c0-0.6-0.4-1-1-1s-1,0.4-1,1v4h-4v-12h7v15H-382z M-341,326.3h-38v-4v-17h38v17V326.3z
		 M-336,317.3v-4c0-0.6-0.4-1-1-1s-1,0.4-1,1v4v1v2h-1v-15h7v12H-336z"/>
	<path class="st0" d="M-384,292.3h3c0.6,0,1-0.4,1-1s-0.4-1-1-1h-3c-0.6,0-1,0.4-1,1S-384.6,292.3-384,292.3z"/>
	<path class="st0" d="M-384,296.3h3c0.6,0,1-0.4,1-1s-0.4-1-1-1h-3c-0.6,0-1,0.4-1,1S-384.6,296.3-384,296.3z"/>
	<path class="st0" d="M-384,300.3h3c0.6,0,1-0.4,1-1s-0.4-1-1-1h-3c-0.6,0-1,0.4-1,1S-384.6,300.3-384,300.3z"/>
	<path class="st0" d="M-377,292.3h3c0.6,0,1-0.4,1-1s-0.4-1-1-1h-3c-0.6,0-1,0.4-1,1S-377.6,292.3-377,292.3z"/>
	<path class="st0" d="M-377,296.3h3c0.6,0,1-0.4,1-1s-0.4-1-1-1h-3c-0.6,0-1,0.4-1,1S-377.6,296.3-377,296.3z"/>
	<path class="st0" d="M-377,300.3h3c0.6,0,1-0.4,1-1s-0.4-1-1-1h-3c-0.6,0-1,0.4-1,1S-377.6,300.3-377,300.3z"/>
	<path class="st0" d="M-370,292.3h3c0.6,0,1-0.4,1-1s-0.4-1-1-1h-3c-0.6,0-1,0.4-1,1S-370.6,292.3-370,292.3z"/>
	<path class="st0" d="M-370,296.3h3c0.6,0,1-0.4,1-1s-0.4-1-1-1h-3c-0.6,0-1,0.4-1,1S-370.6,296.3-370,296.3z"/>
	<path class="st0" d="M-370,300.3h3c0.6,0,1-0.4,1-1s-0.4-1-1-1h-3c-0.6,0-1,0.4-1,1S-370.6,300.3-370,300.3z"/>
</g>
</svg>
