<?xml version="1.0" encoding="utf-8"?>
<!-- Generator: Adobe Illustrator 19.0.0, SVG Export Plug-In . SVG Version: 6.00 Build 0)  -->
<svg version="1.1" id="Layer_1" xmlns="http://www.w3.org/2000/svg" xmlns:xlink="http://www.w3.org/1999/xlink" x="0px" y="0px"
	 viewBox="-164 42.3 512 512" style="enable-background:new -164 42.3 512 512;" xml:space="preserve">
<style type="text/css">
	.st0{fill:#FFFFFF;}
</style>
<g>
	<g>
		<g>
			<path class="st0" d="M262.7,212.9V95.6h-0.4c0-2.8-0.7-5.5-2.7-7.5l-42.7-42.7c-2-2-4.8-2.7-7.5-2.7v-0.4H92
				c-23.5,0-42.7,19.1-42.7,42.7v128H28c0-23.5-19.1-42.7-42.7-42.7H-36c-23.5,0-42.7,19.1-42.7,42.7c-23.5,0-42.7,19.1-42.7,42.7
				v256c0,23.5,19.1,42.7,42.7,42.7h341.3c23.5,0,42.7-19.1,42.7-42.7v-256C305.3,232.1,286.2,212.9,262.7,212.9z M220,78.7l6.3,6.3
				h-0.9c-2.9,0-5.3-2.4-5.3-5.3V78.7z M70.7,84.9c0-11.8,9.6-21.3,21.3-21.3h106.7v16c0,14.7,12,26.7,26.7,26.7h16v149.3H70.7V84.9
				z M-57.3,212.9c0-11.8,9.6-21.3,21.3-21.3h21.3c11.8,0,21.3,9.6,21.3,21.3v21.3c0,8.9-5.7,17-14.2,20c-4.3,1.5-7.1,5.5-7.1,10.1
				v153.2c0,4.5,2.8,8.5,7.1,10.1c8.5,3,14.2,11.1,14.2,20v21.3c0,11.8-9.6,21.3-21.3,21.3H-36c-11.8,0-21.3-9.6-21.3-21.3v-21.3
				c0-8.9,5.7-17,14.2-20c4.3-1.5,7.1-5.5,7.1-10.1V264.3c0-4.5-2.8-8.5-7.1-10.1c-8.5-3-14.2-11.1-14.2-20
				C-57.3,234.3-57.3,212.9-57.3,212.9z M284,511.6c0,11.8-9.6,21.3-21.3,21.3H-78.7c-11.8,0-21.3-9.6-21.3-21.3v-256
				c0-11.8,9.6-21.3,21.3-21.3c0,15.3,8.3,29.3,21.3,36.8v139.7c-13,7.5-21.3,21.5-21.3,36.8v21.3c0,23.5,19.1,42.7,42.7,42.7h21.3
				c23.5,0,42.7-19.1,42.7-42.7v-21.3c0-15.3-8.3-29.3-21.3-36.8V271.1c13-7.5,21.3-21.5,21.3-36.8h21.3v32
				c0,5.9,4.8,10.7,10.7,10.7h192c5.9,0,10.7-4.8,10.7-10.7v-32c11.8,0,21.3,9.6,21.3,21.3V511.6z"/>
			<path class="st0" d="M209.3,127.6H102.7c-5.9,0-10.7,4.8-10.7,10.7c0,5.9,4.8,10.7,10.7,10.7h106.7c5.9,0,10.7-4.8,10.7-10.7
				S215.2,127.6,209.3,127.6z"/>
			<path class="st0" d="M209.3,170.3H102.7c-5.9,0-10.7,4.8-10.7,10.7s4.8,10.7,10.7,10.7h106.7c5.9,0,10.7-4.8,10.7-10.7
				C220,175.1,215.2,170.3,209.3,170.3z"/>
			<path class="st0" d="M166.7,212.9h-64c-5.9,0-10.7,4.8-10.7,10.7c0,5.9,4.8,10.7,10.7,10.7h64c5.9,0,10.7-4.8,10.7-10.7
				C177.3,217.7,172.6,212.9,166.7,212.9z"/>
			<circle class="st0" cx="241.3" cy="490.3" r="21.3"/>
			<circle class="st0" cx="177.3" cy="490.3" r="21.3"/>
			<circle class="st0" cx="113.3" cy="490.3" r="21.3"/>
			<circle class="st0" cx="241.3" cy="426.3" r="21.3"/>
			<circle class="st0" cx="177.3" cy="426.3" r="21.3"/>
			<circle class="st0" cx="113.3" cy="426.3" r="21.3"/>
			<circle class="st0" cx="241.3" cy="362.3" r="21.3"/>
			<circle class="st0" cx="177.3" cy="362.3" r="21.3"/>
			<circle class="st0" cx="113.3" cy="362.3" r="21.3"/>
		</g>
	</g>
</g>
</svg>
