<?xml version="1.0" encoding="utf-8"?>
<!-- Generator: Adobe Illustrator 19.0.0, SVG Export Plug-In . SVG Version: 6.00 Build 0)  -->
<svg version="1.1" id="Layer_1" xmlns="http://www.w3.org/2000/svg" xmlns:xlink="http://www.w3.org/1999/xlink" x="0px" y="0px"
	 viewBox="-164 42.3 512 512" style="enable-background:new -164 42.3 512 512;" xml:space="preserve">
<style type="text/css">
	.st0{fill:#FFFFFF;}
</style>
<g>
	<g>
		<path class="st0" d="M273,283.3H62c-8.3,0-15,6.7-15,15v61c0,8.3,6.7,15,15,15h211c8.3,0,15-6.7,15-15v-61
			C288,290,281.3,283.3,273,283.3z M258,344.3H77v-31h181V344.3z"/>
	</g>
</g>
<g>
	<g>
		<path class="st0" d="M92,404.3H62c-8.3,0-15,6.7-15,15s6.7,15,15,15h30c8.3,0,15-6.7,15-15S100.3,404.3,92,404.3z"/>
	</g>
</g>
<g>
	<g>
		<path class="st0" d="M183,404.3h-31c-8.3,0-15,6.7-15,15s6.7,15,15,15h31c8.3,0,15-6.7,15-15S191.3,404.3,183,404.3z"/>
	</g>
</g>
<g>
	<g>
		<path class="st0" d="M273,404.3h-30c-8.3,0-15,6.7-15,15s6.7,15,15,15h30c8.3,0,15-6.7,15-15S281.3,404.3,273,404.3z"/>
	</g>
</g>
<g>
	<g>
		<path class="st0" d="M92,464.3H62c-8.3,0-15,6.7-15,15s6.7,15,15,15h30c8.3,0,15-6.7,15-15S100.3,464.3,92,464.3z"/>
	</g>
</g>
<g>
	<g>
		<path class="st0" d="M183,464.3h-31c-8.3,0-15,6.7-15,15s6.7,15,15,15h31c8.3,0,15-6.7,15-15S191.3,464.3,183,464.3z"/>
	</g>
</g>
<g>
	<g>
		<path class="st0" d="M273,464.3h-30c-8.3,0-15,6.7-15,15s6.7,15,15,15h30c8.3,0,15-6.7,15-15S281.3,464.3,273,464.3z"/>
	</g>
</g>
<g>
	<g>
		<path class="st0" d="M303,223.3h-15v-76c0-3.8-1.5-7.7-4.4-10.6l-90-90c-2.9-2.9-6.8-4.4-10.6-4.4H62c-8.3,0-15,6.7-15,15v166h-60
			v-2.7c16.9-6.2,30-23.2,30-43.3v-60c0-24.8-20.2-45-45-45h-91c-24.8,0-45,20.2-45,45v60c0,20,12.9,37.1,30,43.3v126.2
			c-17.5,6.2-30,22.9-30,42.4v60c0,19.6,12.5,36.2,30,42.4v17.6c0,24.8,20.2,45,45,45h392c24.8,0,45-20.2,45-45v-241
			C348,243.5,327.8,223.3,303,223.3z M198,93.5l38.8,38.8H198V93.5z M77,72.3h91v75c0,8.3,6.7,15,15,15h75v61H77V72.3z M-134,449.3
			v-60c0-8.3,6.7-15,15-15c8.3,0,15-6.7,15-15v-151c0-8.3-6.7-15-15-15c-8,0-15-7.5-15-16v-60c0-8.3,6.7-15,15-15h91
			c8.3,0,15,6.7,15,15v60c0,8.5-7,16-15,16c-8.3,0-15,6.7-15,15v151c0,8.3,6.7,15,15,15c8.3,0,15,6.7,15,15v60c0,8.3-6.7,15-15,15
			h-91C-127.3,464.3-134,457.6-134,449.3z M318,509.3c0,8.3-6.7,15-15,15H-89c-8.3,0-15-6.7-15-15v-15h76c24.8,0,45-20.2,45-45v-60
			c0-19.6-12.5-36.2-30-42.4v-93.6c6.8,0,308.3,0,316,0c8.3,0,15,6.7,15,15V509.3z"/>
	</g>
</g>
</svg>
