<?xml version="1.0" encoding="utf-8"?>
<!-- Generator: Adobe Illustrator 19.0.0, SVG Export Plug-In . SVG Version: 6.00 Build 0)  -->
<svg version="1.1" id="Capa_1" xmlns="http://www.w3.org/2000/svg" xmlns:xlink="http://www.w3.org/1999/xlink" x="0px" y="0px"
	 viewBox="-180 58.3 480 480" style="enable-background:new -180 58.3 480 480;" xml:space="preserve">
<style type="text/css">
	.st0{fill:#FFFFFF;}
</style>
<g>
	<g>
		<g>
			<path class="st0" d="M276,138.3h-56v-56c0-13.3-10.7-24-24-24H36c-13.3,0-24,10.7-24,24v56h-56c-13.3,0-24,10.7-24,24v232
				c0,13.3,10.7,24,24,24h63.6L7.3,511.1c-1.7,13.1,7.5,25.2,20.6,26.9c1,0.1,2.1,0.2,3.1,0.2h142.2c12,0,22.2-8.9,23.8-20.9
				l13.1-99.1H276c13.3,0,24-10.7,24-24v-232C300,149,289.3,138.3,276,138.3z M28,82.3c0-4.4,3.6-8,8-8h160c4.4,0,8,3.6,8,8v128
				c0,4.4-3.6,8-8,8H36c-4.4,0-8-3.6-8-8V82.3z M181.2,515.3c-0.5,4-3.9,7-7.9,7H31.1c-4.4,0-8-3.6-8-8c0-0.3,0-0.7,0.1-1l12.6-95
				H194L181.2,515.3z M284,394.3c0,4.4-3.6,8-8,8H-44c-4.4,0-8-3.6-8-8v-232c0-4.4,3.6-8,8-8h56v56c0,13.3,10.7,24,24,24h160
				c13.3,0,24-10.7,24-24v-56h56c4.4,0,8,3.6,8,8V394.3z"/>
			<path class="st0" d="M-108,138.3h-48c-13.3,0-24,10.7-24,24v64c0,4.4,3.6,8,8,8h8v88h-8c-4.4,0-8,3.6-8,8v64
				c0,13.3,10.7,24,24,24h48c13.3,0,24-10.7,24-24v-64c0-4.4-3.6-8-8-8h-8v-88h8c4.4,0,8-3.6,8-8v-64C-84,149-94.7,138.3-108,138.3z
				 M-100,218.3h-8c-4.4,0-8,3.6-8,8v104c0,4.4,3.6,8,8,8h8v56c0,4.4-3.6,8-8,8h-48c-4.4,0-8-3.6-8-8v-56h8c4.4,0,8-3.6,8-8v-104
				c0-4.4-3.6-8-8-8h-8v-56c0-4.4,3.6-8,8-8h48c4.4,0,8,3.6,8,8V218.3z"/>
			<rect x="28" y="258.3" class="st0" width="32" height="16"/>
			<rect x="76" y="258.3" class="st0" width="32" height="16"/>
			<rect x="124" y="258.3" class="st0" width="32" height="16"/>
			<rect x="172" y="258.3" class="st0" width="32" height="16"/>
			<rect x="28" y="314.3" class="st0" width="32" height="16"/>
			<rect x="76" y="314.3" class="st0" width="32" height="16"/>
			<rect x="124" y="314.3" class="st0" width="32" height="16"/>
			<rect x="172" y="314.3" class="st0" width="32" height="16"/>
			<rect x="28" y="362.3" class="st0" width="32" height="16"/>
			<rect x="76" y="362.3" class="st0" width="32" height="16"/>
			<rect x="124" y="362.3" class="st0" width="32" height="16"/>
			<rect x="172" y="362.3" class="st0" width="32" height="16"/>
		</g>
	</g>
</g>
</svg>
