<?xml version="1.0" encoding="utf-8"?>
<!-- Generator: Adobe Illustrator 19.0.0, SVG Export Plug-In . SVG Version: 6.00 Build 0)  -->
<svg version="1.1" id="Capa_1" xmlns="http://www.w3.org/2000/svg" xmlns:xlink="http://www.w3.org/1999/xlink" x="0px" y="0px"
	 viewBox="-180 58.3 480 480" style="enable-background:new -180 58.3 480 480;" xml:space="preserve">
<style type="text/css">
	.st0{fill:#FFFFFF;}
</style>
<g>
	<g>
		<g>
			<path class="st0" d="M276,162.3h-48v-64c0-0.2-0.1-0.3-0.1-0.5c0-0.7-0.2-1.4-0.4-2.1c-0.1-0.3-0.2-0.5-0.3-0.8
				c-0.4-0.8-0.9-1.6-1.5-2.3l-32-32c-0.7-0.6-1.4-1.2-2.3-1.5c-0.2-0.1-0.5-0.2-0.7-0.3c-0.7-0.2-1.4-0.4-2.2-0.4
				c-0.2,0-0.3-0.1-0.5-0.1H28c-4.4,0-8,3.6-8,8v96h-64c-13.3,0-24,10.7-24,24v224c0,13.3,10.7,24,24,24h64v96c0,4.4,3.6,8,8,8h192
				c4.4,0,8-3.6,8-8v-96h48c13.3,0,24-10.7,24-24v-224C300,173,289.3,162.3,276,162.3z M196,85.6l4.7,4.7H196V85.6z M36,74.3h144v24
				c0,4.4,3.6,8,8,8h24v144H36V74.3z M212,522.3H36v-88h176V522.3z M284,410.3c0,4.4-3.6,8-8,8H-44c-4.4,0-8-3.6-8-8v-224
				c0-4.4,3.6-8,8-8h64v80c0,4.4,3.6,8,8,8h192c4.4,0,8-3.6,8-8v-80h48c4.4,0,8,3.6,8,8V410.3z"/>
			<path class="st0" d="M-84,210.3c0-26.5-21.5-48-48-48s-48,21.5-48,48c0,13.6,5.8,26.6,16,35.6v104.8c-10.2,9-16,22-16,35.6
				c0,26.5,21.5,48,48,48s48-21.5,48-48c0-13.6-5.8-26.6-16-35.6V245.9C-89.8,236.9-84,223.9-84,210.3z M-112.8,360.8
				c8,6,12.8,15.4,12.8,25.4c0,17.7-14.3,32-32,32s-32-14.3-32-32c0-10,4.8-19.5,12.8-25.4c2-1.5,3.2-3.9,3.2-6.4V242.1
				c0-2.5-1.2-4.9-3.2-6.4c-8-6-12.8-15.4-12.8-25.4c0-17.7,14.3-32,32-32s32,14.3,32,32c0,10-4.8,19.5-12.8,25.4
				c-2,1.5-3.2,3.9-3.2,6.4v112.3C-116,357-114.8,359.3-112.8,360.8z"/>
			<rect x="36" y="282.3" class="st0" width="32" height="16"/>
			<rect x="36" y="314.3" class="st0" width="32" height="16"/>
			<rect x="36" y="354.3" class="st0" width="32" height="16"/>
			<rect x="36" y="386.3" class="st0" width="32" height="16"/>
			<rect x="84" y="282.3" class="st0" width="32" height="16"/>
			<rect x="84" y="314.3" class="st0" width="32" height="16"/>
			<rect x="84" y="354.3" class="st0" width="32" height="16"/>
			<rect x="84" y="386.3" class="st0" width="32" height="16"/>
			<rect x="132" y="282.3" class="st0" width="32" height="16"/>
			<rect x="132" y="314.3" class="st0" width="32" height="16"/>
			<rect x="132" y="354.3" class="st0" width="32" height="16"/>
			<rect x="132" y="386.3" class="st0" width="32" height="16"/>
			<rect x="180" y="282.3" class="st0" width="32" height="16"/>
			<rect x="180" y="314.3" class="st0" width="32" height="16"/>
			<rect x="180" y="354.3" class="st0" width="32" height="16"/>
			<rect x="180" y="386.3" class="st0" width="32" height="16"/>
		</g>
	</g>
</g>
</svg>
