<?xml version="1.0" encoding="utf-8"?>
<!-- Generator: Adobe Illustrator 19.0.0, SVG Export Plug-In . SVG Version: 6.00 Build 0)  -->
<svg version="1.1" id="Capa_1" xmlns="http://www.w3.org/2000/svg" xmlns:xlink="http://www.w3.org/1999/xlink" x="0px" y="0px"
	 viewBox="-164 42.3 512 512" style="enable-background:new -164 42.3 512 512;" xml:space="preserve">
<style type="text/css">
	.st0{fill:#FFFFFF;}
</style>
<g>
	<g>
		<path class="st0" d="M92,42.3c-124.1,0-225,102.9-225,227v90c0,41.4,33.6,75,75,75h15v-180h-15c-17,0-32.4,5.8-45,15.3v-0.3
			c0-107.5,87.5-197,195-197s195,89.5,195,197v0.3c-12.6-9.5-28-15.3-45-15.3h-15v180h15c17,0,32.4-5.8,45-15.3v30.3
			c0,24.8-20.2,45-45,45H134.2c-6.2-17.4-22.7-30-42.2-30c-24.8,0-45,20.2-45,45s20.2,45,45,45c19.5,0,36-12.6,42.2-30H242
			c41.4,0,75-33.6,75-75v-180C317,145.2,216.1,42.3,92,42.3z"/>
	</g>
</g>
<g>
	<g>
		<rect x="-13" y="254.3" class="st0" width="30" height="180"/>
	</g>
</g>
<g>
	<g>
		<rect x="167" y="254.3" class="st0" width="30" height="180"/>
	</g>
</g>
</svg>
