<?xml version="1.0" encoding="utf-8"?>
<!-- Generator: Adobe Illustrator 19.0.0, SVG Export Plug-In . SVG Version: 6.00 Build 0)  -->
<svg version="1.1" id="Capa_1" xmlns="http://www.w3.org/2000/svg" xmlns:xlink="http://www.w3.org/1999/xlink" x="0px" y="0px"
	 viewBox="-273 150.4 294.8 294.8" style="enable-background:new -273 150.4 294.8 294.8;" xml:space="preserve">
<style type="text/css">
	.st0{fill:#FFFFFF;}
</style>
<g>
	<path class="st0" d="M15.8,150.4c-3.3,0-6,2.7-6,6v46h-253.4c-3.3,0-6,2.7-6,6s2.7,6,6,6H9.8v218.9h-66.3V246.9c0-3.3-2.7-6-6-6
		s-6,2.7-6,6v186.4H-261V162.4h239.4c3.3,0,6-2.7,6-6s-2.7-6-6-6H-267c-3.3,0-6,2.7-6,6v282.8c0,3.3,2.7,6,6,6H15.8c3.3,0,6-2.7,6-6
		V156.4C21.8,153.1,19.2,150.4,15.8,150.4z"/>
	<path class="st0" d="M-45.5,253.4h44c3.3,0,6-2.7,6-6s-2.7-6-6-6h-44c-3.3,0-6,2.7-6,6S-48.8,253.4-45.5,253.4z"/>
	<path class="st0" d="M-45.5,314.4h44c3.3,0,6-2.7,6-6c0-3.3-2.7-6-6-6h-44c-3.3,0-6,2.7-6,6C-51.5,311.7-48.8,314.4-45.5,314.4z"/>
	<path class="st0" d="M-45.5,283.9h44c3.3,0,6-2.7,6-6c0-3.3-2.7-6-6-6h-44c-3.3,0-6,2.7-6,6C-51.5,281.2-48.8,283.9-45.5,283.9z"/>
	<path class="st0" d="M-45.5,344.9h44c3.3,0,6-2.7,6-6c0-3.3-2.7-6-6-6h-44c-3.3,0-6,2.7-6,6C-51.5,342.2-48.8,344.9-45.5,344.9z"/>
	<path class="st0" d="M-45.5,405.9h44c3.3,0,6-2.7,6-6c0-3.3-2.7-6-6-6h-44c-3.3,0-6,2.7-6,6C-51.5,403.2-48.8,405.9-45.5,405.9z"/>
	<path class="st0" d="M-45.5,375.4h44c3.3,0,6-2.7,6-6c0-3.3-2.7-6-6-6h-44c-3.3,0-6,2.7-6,6C-51.5,372.7-48.8,375.4-45.5,375.4z"/>
	<path class="st0" d="M-245.3,178.2c-1.1,1.1-1.8,2.7-1.8,4.3c0,1.6,0.6,3.1,1.8,4.2c1.1,1.1,2.7,1.8,4.3,1.8c1.6,0,3.1-0.6,4.2-1.8
		c1.1-1.1,1.8-2.7,1.8-4.2c0-1.6-0.7-3.1-1.8-4.3c-1.1-1.1-2.7-1.8-4.2-1.8C-242.7,176.4-244.2,177.1-245.3,178.2z"/>
	<path class="st0" d="M-225.3,178.2c-1.1,1.1-1.8,2.7-1.8,4.2c0,1.6,0.6,3.1,1.8,4.3c1.1,1.1,2.7,1.8,4.2,1.8c1.6,0,3.1-0.6,4.2-1.8
		c1.1-1.1,1.8-2.7,1.8-4.3c0-1.6-0.6-3.1-1.8-4.2c-1.1-1.1-2.7-1.8-4.2-1.8C-222.7,176.4-224.2,177.1-225.3,178.2z"/>
	<path class="st0" d="M-205.3,178.2c-1.1,1.1-1.8,2.7-1.8,4.3s0.6,3.1,1.8,4.2c1.1,1.1,2.7,1.8,4.3,1.8c1.6,0,3.1-0.6,4.2-1.8
		c1.1-1.1,1.8-2.7,1.8-4.2c0-1.6-0.6-3.1-1.8-4.3c-1.1-1.1-2.7-1.8-4.2-1.8C-202.7,176.4-204.2,177.1-205.3,178.2z"/>
</g>
</svg>
