<?xml version="1.0" encoding="utf-8"?>
<!-- Generator: Adobe Illustrator 19.0.0, SVG Export Plug-In . SVG Version: 6.00 Build 0)  -->
<svg version="1.1" id="Capa_1" xmlns="http://www.w3.org/2000/svg" xmlns:xlink="http://www.w3.org/1999/xlink" x="0px" y="0px"
	 viewBox="-403 280.3 35 35" style="enable-background:new -403 280.3 35 35;" xml:space="preserve">
<style type="text/css">
	.st0{fill:#FFFFFF;}
</style>
<g>
	<path class="st0" d="M-377.7,280.3h-15.6c-1.3,0-2.4,1.1-2.4,2.4v30.3c0,1.3,1.1,2.4,2.4,2.4h15.6c1.3,0,2.4-1.1,2.4-2.4v-30.3
		C-375.3,281.3-376.4,280.3-377.7,280.3z M-388,282h5c0.2,0,0.3,0.1,0.3,0.3c0,0.2-0.1,0.3-0.3,0.3h-5c-0.2,0-0.3-0.1-0.3-0.3
		C-388.3,282.1-388.2,282-388,282z M-385.5,314.1c-0.7,0-1.2-0.5-1.2-1.2s0.5-1.2,1.2-1.2s1.2,0.5,1.2,1.2S-384.8,314.1-385.5,314.1
		z M-377,310.9h-17V284h17V310.9z"/>
</g>
</svg>
