<?xml version="1.0" encoding="utf-8"?>
<!-- Generator: Adobe Illustrator 19.0.0, SVG Export Plug-In . SVG Version: 6.00 Build 0)  -->
<svg version="1.1" id="Capa_1" xmlns="http://www.w3.org/2000/svg" xmlns:xlink="http://www.w3.org/1999/xlink" x="0px" y="0px"
	 viewBox="-403 280.3 35 35" style="enable-background:new -403 280.3 35 35;" xml:space="preserve">
<style type="text/css">
	.st0{fill:#FFFFFF;}
</style>
<g>
	<g>
		<path class="st0" d="M-385.3,281v-0.7l-1.5,1.1l1.5,1.1v-0.6c8.9,0.1,16.2,7.4,16.2,16.3c0,9-7.3,16.3-16.3,16.3
			s-16.3-7.3-16.3-16.3h-0.8c0,9.4,7.7,17.1,17.1,17.1s17.1-7.7,17.1-17.1C-368.4,288.8-376,281.1-385.3,281z"/>
		<path class="st0" d="M-385.6,313.1v0.7l1.5-1.1l-1.5-1.1v0.6c-7.8,0-14.1-6.4-14.1-14.1c0-7.8,6.3-14.1,14.1-14.1
			c7.8,0,14.1,6.3,14.1,14.1h0.8c0-8.2-6.7-14.9-14.9-14.9s-14.9,6.7-14.9,14.9C-400.4,306.4-393.8,313-385.6,313.1z"/>
		<path class="st0" d="M-388.6,301.3C-388.6,301.3-388.6,301.3-388.6,301.3L-388.6,301.3c0.9,0.9,1.9,2.1,3.6,3.2
			c3.5,2.3,6.1,1.7,7.7,0.8c2.7-1.5,3.9-4.7,3.9-7.1c0-6.6-5.4-12-12-12c-6.6,0-12,5.4-12,12c0,6.6,5.4,12,12,12
			c0.4,0,0.7-0.3,0.7-0.7c0-0.4-0.3-0.7-0.7-0.7c-5.8,0-10.5-4.7-10.5-10.5c0-5.8,4.7-10.5,10.5-10.5s10.5,4.7,10.5,10.5
			c0,2.4-1.3,4.8-3.1,5.8c-0.7,0.4-1.4,0.6-2.2,0.6c0.5-0.3,0.9-0.7,1.2-1.1c0.1-0.1,0.1-0.2,0.2-0.3c0.2-0.6,0.3-1.2,0.4-1.8
			c0.2-0.8-3.4-2.3-3.7-1.3c-0.1,0.4-0.3,1.5-0.5,1.8c-0.2,0.3-0.7,0.1-1-0.1c-0.8-0.7-1.7-1.7-2.5-2.5l0,0c0,0,0,0-0.1-0.1
			c0,0,0,0-0.1-0.1v0c-0.8-0.8-1.8-1.7-2.5-2.5c-0.3-0.3-0.4-0.8-0.1-1c0.3-0.2,1.4-0.4,1.8-0.5c1-0.3-0.5-3.9-1.3-3.7
			c-0.6,0.1-1.3,0.2-1.8,0.4c-0.1,0-0.2,0.1-0.3,0.2c-2.1,1.3-2.3,4.5-0.3,6.8C-390.3,299.5-389.5,300.4-388.6,301.3L-388.6,301.3
			C-388.7,301.2-388.7,301.3-388.6,301.3z"/>
	</g>
</g>
</svg>
