<?xml version="1.0" encoding="iso-8859-1"?>
<!-- Generator: Adobe Illustrator 19.0.0, SVG Export Plug-In . SVG Version: 6.00 Build 0)  -->
<svg version="1.1" id="Capa_1" xmlns="http://www.w3.org/2000/svg" xmlns:xlink="http://www.w3.org/1999/xlink" x="0px" y="0px"
	 viewBox="0 0 502 502" style="enable-background:new 0 0 502 502;" xml:space="preserve">
<path style="fill:#ED664C;" d="M449.1,117.2v242.6c0,24.3-19.7,44-44,44H185.9c-24.3,0-44-19.7-44-44V54.3c0-24.3,19.7-44,44-44
	h161.5v72.9c0,18.8,15.2,34,34,34H449.1z M387.4,212c0-50.8-41.1-91.9-91.9-91.9s-91.9,41.2-91.9,91.9s41.2,91.9,91.9,91.9
	S387.4,262.8,387.4,212z"/>
<g>
	<path style="fill:#FDC75B;" d="M347.4,10.3l101.7,106.9h-67.7c-18.8,0-34-15.2-34-34V10.3L347.4,10.3z"/>
	<path style="fill:#FDC75B;" d="M185.9,403.7h219.2c0,24.3-19.7,44-44,44h-1H141.9c-24.3,0-44-19.7-44-44V98.3c0-24.3,19.7-44,44-44
		v305.4C141.9,384,161.6,403.7,185.9,403.7z"/>
</g>
<circle style="fill:#ED664C;" cx="295.5" cy="212" r="91.9"/>
<path style="fill:#FDC75B;" d="M141.9,447.7h218.2c0,24.3-19.7,44-44,44H96.9c-24.3,0-44-19.7-44-44V142.3c0-24.3,19.7-44,44-44h1
	v305.4C97.9,428,117.6,447.7,141.9,447.7z"/>
<path d="M354.6,3.2c-1.9-2-4.5-3.2-7.2-3.2H185.9c-26.6,0-48.8,19.5-53.2,44.9c-22.4,3.9-40,21.6-43.9,43.9
	c-25.9,4-45.8,26.5-45.8,53.5v305.4c0,29.8,24.1,54.3,53.9,54.3h219.2c26.6,0,48.7-19.4,53.2-44.8c22.9-3.5,41-21.5,45-44.3
	c25.4-4.4,44.7-26.6,44.7-53.3V117.2c0-2.6-0.9-5.1-2.7-7L354.6,3.2z M357,35.3l68.8,71.7h-44.4c-13.2,0-24.4-10.6-24.4-23.8V35.3z
	 M316.1,482H96.9C78.1,482,63,466.5,63,447.7V142.3c0-15.6,10-28.8,25-32.8v294.2c0,29.8,24.1,54.3,53.9,54.3h206.7
	C344.3,472,331.4,482,316.1,482z M361.1,438H141.9c-18.7,0-33.9-15.5-33.9-34.3V98.3c0-15.3,10-28.2,24-32.5v293.9
	c0,29.8,24.1,54.3,53.9,54.3h207.7C389.3,428,376.4,438,361.1,438z M405.1,394H185.9c-18.7,0-33.9-15.5-33.9-34.3V54.3
	c0-18.7,15.1-34.3,33.9-34.3H337v63.2c0,24.3,20.1,43.8,44.4,43.8H439v232.7C439,378.5,423.9,394,405.1,394z"/>
<path d="M377.8,330H213.2c-5.5,0-10,4.5-10,10s4.5,10,10,10h164.7c5.5,0,10-4.5,10-10S383.4,330,377.8,330z"/>
<path d="M331.5,176c-3.9-3.9-10.2-3.9-14.1,0l-21.8,21.8L273.7,176c-3.9-3.9-10.2-3.9-14.1,0c-3.9,3.9-3.9,10.2,0,14.1l21.8,21.8
	l-21.8,21.8c-3.9,3.9-3.9,10.2,0,14.1c2,2,4.5,2.9,7.1,2.9c2.6,0,5.1-1,7.1-2.9l21.8-21.8l21.8,21.8c2,2,4.5,2.9,7.1,2.9
	c2.6,0,5.1-1,7.1-2.9c3.9-3.9,3.9-10.2,0-14.1l-22-21.7l21.8-21.8C335.4,186.3,335.4,179.9,331.5,176z"/>
<path d="M295.5,110.1c-56.2,0-101.9,45.7-101.9,101.9s45.7,101.9,101.9,101.9S397.4,268.2,397.4,212S351.7,110.1,295.5,110.1z
	 M295.5,293.9c-45.2,0-81.9-36.7-81.9-81.9s36.7-81.9,81.9-81.9s81.9,36.7,81.9,81.9S340.7,293.9,295.5,293.9z"/>
<g>
</g>
<g>
</g>
<g>
</g>
<g>
</g>
<g>
</g>
<g>
</g>
<g>
</g>
<g>
</g>
<g>
</g>
<g>
</g>
<g>
</g>
<g>
</g>
<g>
</g>
<g>
</g>
<g>
</g>
</svg>
