<?xml version="1.0" encoding="iso-8859-1"?>
<!-- Generator: Adobe Illustrator 19.0.0, SVG Export Plug-In . SVG Version: 6.00 Build 0)  -->
<svg version="1.1" id="Capa_1" xmlns="http://www.w3.org/2000/svg" xmlns:xlink="http://www.w3.org/1999/xlink" x="0px" y="0px"
	 viewBox="0 0 406.1 406.1" style="enable-background:new 0 0 406.1 406.1;" xml:space="preserve">
<path style="fill:#ED664C;" d="M354.25,120.2v234.1c0,23-18.7,41.7-41.7,41.7h-219c-23,0-41.7-18.7-41.7-41.7V51.9
	c0-23,18.7-41.7,41.7-41.7h150.2l3.1,3.1l-2.1,2.1V104c0,8.7,7,15.6,15.6,15.6h88.7l2.3-2.3L354.25,120.2z M277.05,255.2
	c0-20.4-8.3-38.9-21.7-52.3c-13.4-13.4-31.9-21.7-52.3-21.7c-40.9,0-74,33.2-74,74c0,20.4,8.3,38.9,21.7,52.3s31.9,21.7,52.3,21.7
	C243.95,329.3,277.05,296.1,277.05,255.2z"/>
<path style="fill:#FDC75B;" d="M351.35,117.3l-2.3,2.3h-88.6c-8.7,0-15.6-7-15.6-15.6V15.4l2.1-2.1L351.35,117.3z"/>
<g>
	<path style="fill:#ED664C;" d="M255.35,202.9c13.4,13.4,21.7,31.9,21.7,52.3c0,40.9-33.2,74-74,74c-20.4,0-38.9-8.3-52.3-21.7
		l0.2-0.2l104.2-104.2L255.35,202.9z"/>
	<path style="fill:#ED664C;" d="M255.35,202.9l-0.2,0.2l-104.2,104.3l-0.2,0.2c-13.4-13.4-21.7-31.9-21.7-52.3c0-40.9,33.2-74,74-74
		C223.45,181.2,241.95,189.5,255.35,202.9z"/>
</g>
<path d="M203.05,171.2c-46.3,0-84,37.7-84,84c0,22.4,8.7,43.5,24.6,59.4l0,0c15.9,15.9,37,24.6,59.4,24.6c46.3,0,84-37.7,84-84
	c0-22.4-8.7-43.5-24.6-59.4S225.45,171.2,203.05,171.2z M139.05,255.2c0-35.3,28.7-64,64-64c13.7,0,26.8,4.3,37.6,12.2l-89.4,89.4
	C143.35,282,139.05,269,139.05,255.2z M203.05,319.3c-13.7,0-26.8-4.3-37.7-12.2l89.4-89.4c7.9,10.9,12.2,23.9,12.2,37.7
	C267.05,290.5,238.35,319.3,203.05,319.3z"/>
<path d="M364.05,354.3V120.2c0-2.7-1-5.2-2.8-7.1l-2.8-2.9l-104.5-104l-3.1-3.2c-1.9-1.9-4.4-3-7.1-3H93.55
	c-28.5,0.1-51.5,23.4-51.5,51.9v302.4c0,28.5,23,51.8,51.5,51.8h219C341.05,406.1,364.05,382.8,364.05,354.3z M255.05,35.3
	l74.5,74.8h-69.1c-3.1,0-5.4-2.9-5.4-6.1V35.3z M312.55,386.1h-219c-17.5,0-31.5-14.3-31.5-31.8V51.9c0-17.5,14-31.8,31.5-31.8
	h141.5V104c0,14.1,11.2,26.1,25.4,26.1h83.6v224.2C344.05,371.8,330.05,386.1,312.55,386.1z"/>
<g>
</g>
<g>
</g>
<g>
</g>
<g>
</g>
<g>
</g>
<g>
</g>
<g>
</g>
<g>
</g>
<g>
</g>
<g>
</g>
<g>
</g>
<g>
</g>
<g>
</g>
<g>
</g>
<g>
</g>
</svg>
