<?xml version="1.0" encoding="iso-8859-1"?>
<!-- Generator: Adobe Illustrator 19.0.0, SVG Export Plug-In . SVG Version: 6.00 Build 0)  -->
<svg version="1.1" id="Layer_1" xmlns="http://www.w3.org/2000/svg" xmlns:xlink="http://www.w3.org/1999/xlink" x="0px" y="0px"
	 viewBox="0 0 511.999 511.999" style="enable-background:new 0 0 511.999 511.999;" xml:space="preserve">
<polygon style="fill:#F4B2B0;" points="27.959,164.583 27.959,160.534 172.263,14.827 172.263,164.583 "/>
<g>
	<path style="fill:#B3404A;" d="M459.181,264.152c-5.593-5.981-14.975-6.295-20.956-0.703c-5.981,5.593-6.295,14.976-0.703,20.956
		c20.435,21.854,31.69,50.379,31.69,80.317c0,64.859-52.766,117.623-117.623,117.623c-64.859,0-117.623-52.766-117.623-117.623
		s52.765-117.623,117.623-117.623c8.187,0,14.827-6.638,14.827-14.827c0-8.189-6.639-14.827-14.827-14.827
		c-81.208,0-147.276,66.068-147.276,147.276c0,14.953,2.248,29.389,6.41,42.997H42.786v-167.54c0-8.189-6.638-14.827-14.827-14.827
		s-14.827,6.638-14.827,14.827v182.366c0,8.189,6.638,14.827,14.827,14.827h195.559c25.359,44.53,73.265,74.626,128.072,74.626
		c81.208,0,147.276-66.068,147.276-147.276C498.866,327.236,484.772,291.519,459.181,264.152z"/>
	<path style="fill:#B3404A;" d="M394.597,0H172.263c-0.178,0-0.353,0.021-0.529,0.027c-0.172,0.006-0.344,0.013-0.516,0.025
		c-0.636,0.044-1.268,0.117-1.889,0.242c-0.021,0.004-0.04,0.012-0.061,0.015c-0.608,0.126-1.202,0.299-1.787,0.5
		c-0.159,0.053-0.314,0.111-0.471,0.171c-0.577,0.219-1.143,0.463-1.689,0.752c-0.024,0.013-0.049,0.022-0.073,0.034
		c-0.565,0.304-1.103,0.657-1.626,1.033c-0.135,0.098-0.268,0.197-0.4,0.299c-0.519,0.4-1.023,0.824-1.49,1.296L17.428,150.099
		c-0.348,0.351-0.676,0.719-0.984,1.1c-0.212,0.261-0.399,0.534-0.59,0.805c-0.086,0.123-0.182,0.239-0.264,0.363
		c-0.219,0.331-0.415,0.673-0.603,1.017c-0.042,0.076-0.09,0.147-0.13,0.222c-0.187,0.353-0.35,0.713-0.506,1.078
		c-0.033,0.077-0.073,0.151-0.105,0.23c-0.141,0.345-0.259,0.697-0.374,1.048c-0.034,0.107-0.077,0.211-0.11,0.317
		c-0.096,0.325-0.172,0.654-0.246,0.984c-0.033,0.142-0.073,0.28-0.101,0.424c-0.059,0.304-0.096,0.609-0.136,0.915
		c-0.022,0.173-0.055,0.344-0.073,0.519c-0.028,0.302-0.034,0.605-0.044,0.907c-0.006,0.168-0.025,0.334-0.025,0.501v4.051
		c0,8.189,6.638,14.827,14.827,14.827h144.304c8.189,0,14.827-6.638,14.827-14.827V29.653h192.681v143.315
		c0,8.189,6.639,14.827,14.827,14.827s14.827-6.638,14.827-14.827V14.827C409.423,6.638,402.786,0,394.597,0z M59.498,149.757
		l91.096-91.982l6.842-6.908v98.89H59.498z"/>
</g>
<polygon style="fill:#F4B2B0;" points="425.039,404.045 384.233,363.241 425.039,322.435 392.394,289.792 351.59,330.597 
	310.786,289.792 278.14,322.435 318.946,363.241 278.14,404.045 310.786,436.689 351.59,395.885 392.394,436.689 "/>
<path style="fill:#B3404A;" d="M392.395,451.515c-3.932,0-7.702-1.563-10.484-4.343l-30.32-30.322l-30.32,30.322
	c-5.791,5.788-15.176,5.79-20.969,0l-32.645-32.644c-2.78-2.78-4.343-6.552-4.343-10.484s1.563-7.704,4.343-10.484l30.32-30.32
	l-30.32-30.32c-2.78-2.78-4.343-6.552-4.343-10.484c0-3.932,1.563-7.704,4.343-10.484l32.645-32.644
	c5.793-5.79,15.178-5.788,20.969,0l30.32,30.322l30.32-30.322c2.781-2.78,6.552-4.343,10.484-4.343s7.704,1.563,10.484,4.343
	l32.644,32.644c5.79,5.79,5.79,15.178,0,20.968l-30.32,30.32l30.32,30.32c5.79,5.79,5.79,15.178,0,20.968l-32.644,32.644
	C400.099,449.954,396.327,451.515,392.395,451.515z M299.11,404.045l11.676,11.676l30.32-30.322c5.791-5.79,15.176-5.79,20.969,0
	l30.32,30.322l11.676-11.676l-30.322-30.32c-5.79-5.79-5.79-15.178,0-20.969l30.322-30.32l-11.676-11.676l-30.32,30.322
	c-5.791,5.79-15.176,5.79-20.969,0l-30.32-30.322l-11.676,11.676l30.32,30.32c5.79,5.79,5.79,15.178,0,20.969L299.11,404.045z"/>
<g>
</g>
<g>
</g>
<g>
</g>
<g>
</g>
<g>
</g>
<g>
</g>
<g>
</g>
<g>
</g>
<g>
</g>
<g>
</g>
<g>
</g>
<g>
</g>
<g>
</g>
<g>
</g>
<g>
</g>
</svg>
