<?xml version="1.0" encoding="iso-8859-1"?>
<!-- Generator: Adobe Illustrator 19.0.0, SVG Export Plug-In . SVG Version: 6.00 Build 0)  -->
<svg version="1.1" id="Capa_1" xmlns="http://www.w3.org/2000/svg" xmlns:xlink="http://www.w3.org/1999/xlink" x="0px" y="0px"
	 viewBox="0 0 512 512" style="enable-background:new 0 0 512 512;" xml:space="preserve">
<path style="fill:#D2EB5A;" d="M469.353,85.113v263.78c0,34.631-19.121,65.863-49.922,81.613L297.867,501.96l-0.43,0.21
	c-12.971,6.55-27.201,9.83-41.442,9.83c-14.231,0-28.461-3.28-41.442-9.83l-0.84-0.46L92.569,430.507
	c-30.811-15.751-49.922-46.982-49.922-81.613V85.113c0-14.171,9.52-26.611,23.181-30.321L251.025,0.66l0.2-0.05
	c1.56-0.41,3.17-0.61,4.77-0.61c1.61,0,3.22,0.2,4.78,0.61l0.38,0.11l185.007,54.072C459.833,58.502,469.353,70.943,469.353,85.113z
	"/>
<path style="fill:#B4D241;" d="M469.353,85.113v263.78c0,34.631-19.121,65.863-49.922,81.613L297.867,501.96l-0.43,0.21
	c-12.971,6.55-27.201,9.83-41.442,9.83V0c1.61,0,3.22,0.2,4.78,0.61l0.38,0.11l185.007,54.072
	C459.833,58.502,469.353,70.943,469.353,85.113z"/>
<path style="fill:#00EE84;" d="M384.51,245.6c0,70.863-57.652,128.515-128.515,128.515S127.49,316.462,127.49,245.6
	s57.642-128.515,128.505-128.515S384.51,174.737,384.51,245.6z"/>
<path style="fill:#00DD7B;" d="M384.51,245.6c0,70.863-57.652,128.515-128.515,128.515v-257.03
	C326.858,117.085,384.51,174.737,384.51,245.6z"/>
<path style="fill:#00CC71;" d="M310.197,228.269l-54.202,50.162l-7.05,6.52c-0.13,0.11-0.26,0.21-0.38,0.32
	c-0.18,0.15-0.37,0.31-0.55,0.46c-0.2,0.16-0.41,0.3-0.61,0.45c-0.2,0.14-0.39,0.27-0.59,0.4c-0.21,0.14-0.43,0.26-0.65,0.39
	c-0.2,0.11-0.4,0.23-0.6,0.33c-0.23,0.12-0.47,0.22-0.71,0.33c-0.2,0.09-0.39,0.18-0.59,0.26c-0.26,0.1-0.52,0.18-0.78,0.27
	c-0.19,0.06-0.37,0.13-0.56,0.19c-0.28,0.08-0.57,0.14-0.86,0.21c-0.17,0.03-0.34,0.08-0.51,0.11c-0.33,0.07-0.66,0.11-0.99,0.15
	c-0.13,0.01-0.27,0.04-0.41,0.05c-0.46,0.05-0.93,0.07-1.4,0.07c-0.5,0-0.99-0.03-1.48-0.07c-0.14-0.02-0.28-0.05-0.42-0.07
	c-0.35-0.04-0.7-0.08-1.04-0.15c-0.18-0.04-0.35-0.09-0.52-0.13c-0.31-0.07-0.62-0.14-0.92-0.24c-0.19-0.05-0.38-0.13-0.57-0.19
	c-0.28-0.1-0.56-0.2-0.83-0.31c-0.2-0.09-0.4-0.18-0.59-0.28c-0.26-0.12-0.51-0.23-0.76-0.37c-0.21-0.11-0.41-0.23-0.61-0.35
	c-0.23-0.14-0.46-0.28-0.69-0.44c-0.2-0.13-0.39-0.28-0.59-0.43c-0.21-0.16-0.43-0.33-0.63-0.5c-0.19-0.16-0.38-0.33-0.56-0.5
	c-0.13-0.13-0.27-0.24-0.4-0.36l-26.761-26.771c-5.86-5.85-5.86-15.351,0-21.211c5.86-5.86,15.351-5.86,21.211,0l16.561,16.561
	l16.841-15.581l33.821-31.301c6.08-5.63,15.571-5.26,21.201,0.82C316.647,213.148,316.277,222.639,310.197,228.269z"/>
<path style="fill:#00AB5E;" d="M310.197,228.269l-54.202,50.162v-40.882l33.821-31.301c6.08-5.63,15.571-5.26,21.201,0.82
	C316.647,213.148,316.277,222.639,310.197,228.269z"/>
<g>
</g>
<g>
</g>
<g>
</g>
<g>
</g>
<g>
</g>
<g>
</g>
<g>
</g>
<g>
</g>
<g>
</g>
<g>
</g>
<g>
</g>
<g>
</g>
<g>
</g>
<g>
</g>
<g>
</g>
</svg>
