<?xml version="1.0" encoding="iso-8859-1"?>
<!-- Generator: Adobe Illustrator 19.0.0, SVG Export Plug-In . SVG Version: 6.00 Build 0)  -->
<svg version="1.1" id="Capa_1" xmlns="http://www.w3.org/2000/svg" xmlns:xlink="http://www.w3.org/1999/xlink" x="0px" y="0px"
	 viewBox="0 0 512 512" style="enable-background:new 0 0 512 512;" xml:space="preserve">
<path style="fill:#FFF2D4;" d="M512,255.995c0,68.379-26.628,132.672-74.988,181.022c-48.35,48.35-112.633,74.978-181.012,74.978
	s-132.662-26.628-181.012-74.978C26.628,388.667,0,324.374,0,255.995S26.628,123.333,74.988,74.983
	C123.338,26.633,187.621,0.005,256,0.005s132.662,26.628,181.012,74.978C485.372,123.333,512,187.616,512,255.995z"/>
<path style="fill:#F9D8B4;" d="M512,255.995c0,68.379-26.628,132.672-74.988,181.022c-48.35,48.35-112.633,74.978-181.012,74.978
	V0.005c68.379,0,132.662,26.628,181.012,74.978C485.372,123.333,512,187.616,512,255.995z"/>
<path style="fill:#FFD561;" d="M424.874,255.995c0,93.125-75.76,168.874-168.874,168.874S87.126,349.12,87.126,255.995
	c0-93.115,75.759-168.874,168.874-168.874S424.874,162.88,424.874,255.995z"/>
<path style="fill:#FFB64C;" d="M424.874,255.995c0,93.125-75.76,168.874-168.874,168.874V87.121
	C349.115,87.121,424.874,162.88,424.874,255.995z"/>
<path style="fill:#FF712F;" d="M336.797,220.634L256,299.278l-14.511,14.12c-0.17,0.17-0.351,0.31-0.531,0.471
	c-0.18,0.16-0.351,0.33-0.541,0.481c-0.2,0.16-0.411,0.3-0.621,0.451c-0.2,0.14-0.391,0.29-0.591,0.421
	c-0.21,0.14-0.441,0.26-0.661,0.391c-0.2,0.12-0.401,0.25-0.611,0.361c-0.23,0.12-0.471,0.22-0.701,0.32
	c-0.21,0.1-0.411,0.2-0.621,0.28c-0.25,0.1-0.501,0.18-0.761,0.27c-0.2,0.07-0.401,0.15-0.601,0.21c-0.28,0.08-0.561,0.14-0.841,0.2
	c-0.19,0.04-0.371,0.1-0.551,0.13c-0.33,0.07-0.651,0.1-0.981,0.14c-0.15,0.02-0.29,0.05-0.441,0.07
	c-0.471,0.04-0.951,0.07-1.422,0.07c-0.01,0-0.01,0-0.01,0c-0.481,0-0.961-0.03-1.452-0.08c-0.15-0.01-0.3-0.04-0.451-0.06
	c-0.33-0.04-0.661-0.08-0.991-0.15c-0.18-0.03-0.361-0.09-0.541-0.13c-0.29-0.07-0.591-0.13-0.871-0.21
	c-0.2-0.06-0.401-0.14-0.591-0.21c-0.27-0.09-0.531-0.18-0.791-0.28c-0.21-0.09-0.421-0.19-0.621-0.29
	c-0.24-0.11-0.491-0.22-0.721-0.34c-0.21-0.11-0.411-0.24-0.621-0.371c-0.22-0.13-0.451-0.25-0.671-0.401
	c-0.2-0.13-0.401-0.29-0.601-0.441s-0.411-0.3-0.611-0.461c-0.2-0.16-0.381-0.34-0.571-0.511c-0.17-0.16-0.351-0.3-0.511-0.471
	l-45.326-45.326c-5.868-5.858-5.868-15.372,0-21.241s15.382-5.868,21.241,0l34.85,34.84L256,257.347l59.836-58.234
	c5.949-5.788,15.462-5.658,21.241,0.28C342.866,205.342,342.735,214.856,336.797,220.634z"/>
<path style="fill:#FF3636;" d="M336.797,220.634L256,299.278v-41.931l59.836-58.234c5.949-5.788,15.462-5.658,21.241,0.28
	C342.866,205.342,342.735,214.856,336.797,220.634z"/>
<g>
</g>
<g>
</g>
<g>
</g>
<g>
</g>
<g>
</g>
<g>
</g>
<g>
</g>
<g>
</g>
<g>
</g>
<g>
</g>
<g>
</g>
<g>
</g>
<g>
</g>
<g>
</g>
<g>
</g>
</svg>
